<svg xmlns="http://www.w3.org/2000/svg" data-name="Layer 1" viewBox="0 0 64 64" id="bhim"><path fill="#fe7a09" d="M26.26 45.867a13.116 13.116 0 0 0-2.483 2.115c-3.234 2.936-6.439 5.904-9.663 8.85a1.042 1.042 0 0 1-.987.518L28.1 5.028l6.455 12.138c2.225 4.28 4.409 8.581 6.703 12.823a1.593 1.593 0 0 1-.385 2.37c-4.851 4.375-9.635 8.826-14.442 13.25a.233.233 0 0 0-.19.275Z"></path><path fill="#028c3c" d="M26.432 45.61c4.807-4.425 9.59-8.876 14.442-13.252a1.593 1.593 0 0 0 .385-2.37c-2.294-4.241-4.478-8.542-6.703-12.822l2.757-9.37.27-.918a.679.679 0 0 1 .51.591q6.47 12.338 12.936 24.679a.953.953 0 0 1-.183 1.41q-13.81 12.61-27.58 25.264a.793.793 0 0 1-.6.217c.307-1.09.61-2.181.921-3.27.858-3 1.725-5.996 2.57-8.998a1.024 1.024 0 0 0 .103-.904l-.018.017c.25.037.174-.15.19-.274Z"></path><path fill="#fefefe" d="M26.432 45.61c-.016.124.06.311-.19.274a.233.233 0 0 1 .19-.274Z"></path></svg>