<svg xmlns="http://www.w3.org/2000/svg" fill="none" viewBox="0 0 350 250">
    <path fill="#fff" d="M8 10h333v230H8z"/>
    <path fill="#211E1F" d="M72.294 170.997c0-4.063-2.113-3.796-4.139-3.84v-1.174c1.756.087 3.556.087 5.315.087 1.891 0 4.46-.087 7.793-.087 11.662 0 18.013 7.813 18.013 15.813 0 4.474-2.61 15.72-18.555 15.72-2.296 0-4.415-.088-6.53-.088-2.027 0-4.01.045-6.036.089v-1.173c2.7-.273 4.01-.363 4.138-3.436v-21.91zm4.415 21.19c0 3.479 2.48 3.885 4.685 3.885 9.732 0 12.927-7.365 12.927-14.097 0-8.445-5.406-14.544-14.097-14.544-1.85 0-2.7.133-3.515.181v24.575zm24.148 4.157h.853c1.26 0 2.162 0 2.162-1.494v-12.241c0-1.986-.675-2.262-2.342-3.16v-.724c2.116-.638 4.641-1.49 4.818-1.626.318-.181.586-.229.812-.229.223 0 .317.273.317.636v17.344c0 1.494.99 1.494 2.251 1.494h.765v1.175c-1.533 0-3.11-.09-4.728-.09-1.621 0-3.244.044-4.908.09v-1.175zm4.818-26.43c-1.173 0-2.206-1.083-2.206-2.258 0-1.131 1.081-2.173 2.206-2.173 1.167 0 2.208.953 2.208 2.173 0 1.22-.995 2.259-2.208 2.259zm9.097 12.964c0-1.67-.498-2.12-2.61-2.979v-.857c1.935-.632 3.78-1.22 5.943-2.171.134 0 .266.092.266.451v2.938c2.572-1.85 4.78-3.39 7.801-3.39 3.824 0 5.175 2.802 5.175 6.325v11.655c0 1.494.99 1.494 2.253 1.494h.811v1.175c-1.58 0-3.156-.09-4.774-.09-1.623 0-3.246.044-4.865.09v-1.175h.808c1.265 0 2.16 0 2.16-1.494v-11.698c0-2.578-1.568-3.841-4.14-3.841-1.439 0-3.737 1.174-5.229 2.17v13.368c0 1.495.996 1.495 2.259 1.495h.809v1.175c-1.576 0-3.154-.09-4.776-.09-1.62 0-3.244.044-4.864.09v-1.175h.813c1.26 0 2.16 0 2.16-1.495v-11.97zm23.064 2.171c-.094.408-.094 1.084 0 2.622.265 4.29 3.02 7.813 6.617 7.813 2.48 0 4.42-1.355 6.085-3.026l.628.635c-2.073 2.754-4.64 5.102-8.33 5.102-7.164 0-8.605-6.959-8.605-9.847 0-8.856 5.944-11.478 9.095-11.478 3.65 0 7.572 2.303 7.614 7.092 0 .274 0 .542-.042.816l-.408.271h-12.654zm7.974-1.446c1.123 0 1.256-.588 1.256-1.129 0-2.304-1.396-4.157-3.92-4.157-2.744 0-4.636 2.03-5.176 5.286h7.84zm6.167 12.741h1.217c1.257 0 2.158 0 2.158-1.494v-12.693c0-1.4-1.663-1.672-2.341-2.033v-.675c3.288-1.403 5.091-2.579 5.5-2.579.268 0 .4.137.4.59v4.065h.095c1.124-1.76 3.019-4.655 5.763-4.655 1.127 0 2.567.767 2.567 2.395 0 1.22-.854 2.308-2.114 2.308-1.402 0-1.402-1.088-2.976-1.088-.767 0-3.287 1.04-3.287 3.751v10.614c0 1.494.899 1.494 2.162 1.494h2.52v1.175c-2.478-.046-4.363-.09-6.303-.09-1.846 0-3.74.044-5.36.09v-1.175zm17.342-5.108c.587 2.983 2.386 5.514 5.676 5.514 2.652 0 3.644-1.626 3.644-3.207 0-5.332-9.816-3.615-9.816-10.888 0-2.531 2.029-5.785 6.98-5.785 1.44 0 3.376.41 5.132 1.314l.319 4.604h-1.038c-.45-2.843-2.024-4.47-4.91-4.47-1.801 0-3.511 1.04-3.511 2.98 0 5.29 10.448 3.66 10.448 10.752 0 2.98-2.387 6.146-7.748 6.146-1.801 0-3.917-.633-5.492-1.534l-.497-5.197.813-.229zm53.595-17.076h-1.123c-.857-5.283-4.595-7.409-9.638-7.409-5.183 0-12.705 3.477-12.705 14.319 0 9.132 6.49 15.68 13.424 15.68 4.458 0 8.154-3.071 9.055-7.816l1.033.269-1.033 6.596c-1.892 1.177-6.982 2.396-9.958 2.396-10.536 0-17.2-6.822-17.2-16.987 0-9.262 8.24-15.905 17.068-15.905 3.647 0 7.16 1.179 10.628 2.4l.449 6.457zm1.625 22.184h.853c1.263 0 2.167 0 2.167-1.494v-25.16c0-2.939-.676-3.029-2.39-3.525v-.723c1.802-.586 3.694-1.4 4.64-1.944.49-.27.855-.498.988-.498.275 0 .365.273.365.636v31.214c0 1.494.989 1.494 2.252 1.494h.76v1.175c-1.525 0-3.102-.09-4.725-.09-1.62 0-3.241.044-4.91.09v-1.175zm28.92-1.314c0 .817.493.861 1.257.861.542 0 1.216-.044 1.803-.044v.95c-1.938.18-5.632 1.13-6.488 1.398l-.226-.136v-3.656c-2.7 2.212-4.774 3.792-7.974 3.792-2.432 0-4.954-1.58-4.954-5.372v-11.57c0-1.173-.18-2.304-2.697-2.528v-.86c1.623-.044 5.219-.315 5.807-.315.5 0 .5.316.5 1.31v11.652c0 1.358 0 5.242 3.915 5.242 1.53 0 3.557-1.174 5.447-2.75v-12.16c0-.9-2.16-1.395-3.778-1.849v-.813c4.048-.272 6.575-.632 7.023-.632.365 0 .365.315.365.815v16.665zm8.962-14.906c1.8-1.536 4.23-3.254 6.71-3.254 5.227 0 8.376 4.568 8.376 9.488 0 5.918-4.322 11.837-10.767 11.837-3.331 0-5.086-1.085-6.26-1.58l-1.348 1.036-.943-.494c.399-2.665.629-5.287.629-8.041V169.69c0-2.939-.68-3.029-2.39-3.525v-.723c1.807-.586 3.693-1.4 4.64-1.944.496-.27.854-.498.994-.498.268 0 .358.273.358.636v16.488zm0 12.287c0 1.718 1.619 4.612 4.638 4.612 4.819 0 6.845-4.747 6.845-8.769 0-4.878-3.69-8.943-7.204-8.943-1.671 0-3.064 1.086-4.28 2.127v10.973zM68.104 223.785h.345c.88 0 1.811-.12 1.811-1.4v-12.878c0-1.282-.931-1.403-1.811-1.403h-.345v-.738c.957 0 2.427.098 3.632.098 1.223 0 2.692-.098 3.844-.098v.738h-.345c-.879 0-1.812.121-1.812 1.403v12.878c0 1.28.933 1.4 1.812 1.4h.345v.741c-1.176 0-2.65-.097-3.872-.097-1.201 0-2.647.097-3.604.097v-.741z"/>
    <path fill="#211E1F" d="M75.581 224.63c-1.184 0-2.652-.099-3.873-.099-1.198 0-2.639.099-3.603.099H68v-.951h.449c.888-.02 1.697-.092 1.706-1.294v-12.878c-.009-1.202-.818-1.282-1.706-1.299H68v-.951h.105c.964 0 2.432.097 3.63.097 1.22 0 2.687-.097 3.846-.097h.11v.951h-.453c-.889.017-1.703.097-1.708 1.299v12.878c.005 1.202.819 1.273 1.708 1.294h.452v.95h-.109zm-.105-.21v-.525h-.238c-.875 0-1.917-.152-1.922-1.51v-12.878c.005-1.359 1.047-1.512 1.922-1.512h.238v-.522c-1.132 0-2.551.096-3.74.096-1.165 0-2.574-.089-3.522-.096v.522h.234c.874 0 1.92.153 1.92 1.512v12.878c0 1.359-1.046 1.51-1.92 1.51h-.234v.525c.948-.01 2.333-.099 3.494-.099 1.193 0 2.612.092 3.768.099zm16.942-4.74l.05-.048v-9.217c0-2.018-1.4-2.31-2.133-2.31h-.541v-.74c1.154 0 2.28.098 3.431.098 1.004 0 2.014-.097 3.017-.097v.738h-.367c-1.032 0-2.184.196-2.184 3.12v11.188c0 .86.025 1.718.146 2.48h-.933l-12.619-14.11v10.129c0 2.139.413 2.873 2.303 2.873h.415v.742c-1.052 0-2.104-.097-3.16-.097-1.1 0-2.228.097-3.332.097v-.742h.343c1.691 0 2.204-1.152 2.204-3.117v-10.354c0-1.375-1.13-2.209-2.228-2.209h-.32v-.738c.932 0 1.887.097 2.817.097.736 0 1.448-.097 2.182-.097l10.91 12.314z"/>
    <path fill="#211E1F" d="M93.836 225l-1.01-.038-12.438-13.902v9.851c.03 2.138.354 2.744 2.2 2.768h.525v.951h-.11c-1.06 0-2.115-.099-3.16-.099-1.098 0-2.223.1-3.335.1h-.107v-.952h.452c1.62-.008 2.082-1.051 2.1-3.011v-10.353c-.003-1.309-1.073-2.103-2.124-2.106h-.428v-.948h.107c.937 0 1.897.094 2.816.094.73 0 1.44-.094 2.266-.058l10.77 12.16v-9.04c-.013-1.956-1.313-2.191-2.027-2.208h-.649v-.948h.109c1.158 0 2.286.094 3.431.094.998 0 2.002-.094 3.015-.094h.107v.947h-.472c-1.011.03-2.05.118-2.078 3.017v11.186c0 .859.025 1.718.144 2.463l.024.126h-.128zm-.93-.217h.81c-.11-.738-.13-1.556-.13-2.372v-11.186c0-2.95 1.233-3.23 2.288-3.23h.259v-.521c-.966.007-1.934.095-2.908.095-1.122 0-2.213-.088-3.323-.095l-.001.521h.433c.753 0 2.24.338 2.24 2.422l-.034 9.289-.05.051-.082.077-10.9-12.36c-.727 0-1.437.095-2.183.095-.9 0-1.819-.088-2.707-.095l-.006.521h.218c1.15 0 2.332.881 2.332 2.32v10.352c0 1.965-.546 3.223-2.308 3.23l-.236-.007v.53c1.062-.01 2.153-.099 3.225-.099 1.023 0 2.041.09 3.054.1v-.524h-.31c-1.928-.007-2.407-.849-2.41-2.986v-10.405l12.728 14.277zm-.489-5.104l.078-.072-.078.072zm-.056-.048v-.008l-.02-.017.02.025zm7.55-11.037c-1.841 0-1.91.443-2.278 2.236h-.736c.097-.687.22-1.374.294-2.09.099-.688.146-1.374.146-2.086h.59c.197.738.81.712 1.474.712h12.642c.663 0 1.275-.023 1.326-.763l.584.099c-.095.664-.194 1.328-.268 1.992-.044.663-.044 1.328-.044 1.99l-.738.274c-.051-.909-.173-2.364-1.813-2.364h-4.02v13.079c0 1.895.859 2.112 2.031 2.112h.468v.741c-.956 0-2.674-.097-3.994-.097-1.47 0-3.188.097-4.145.097v-.741h.467c1.351 0 2.034-.121 2.034-2.061v-13.13h-4.02z"/>
    <path fill="#211E1F" d="M109.572 224.63c-.965 0-2.68-.099-3.997-.099-1.468 0-3.183.099-4.145.099h-.102v-.951h.57c1.35-.032 1.894-.05 1.925-1.955V208.7H99.91v-.217h4.124v13.24c0 1.972-.791 2.171-2.137 2.173h-.36v.518c.966-.005 2.615-.094 4.037-.094 1.278 0 2.917.089 3.885.094v-.518h-.358c-1.185-.002-2.138-.293-2.138-2.224v-13.189h4.126c1.645.007 1.86 1.41 1.914 2.322l.528-.196c0-.641.004-1.284.048-1.931.071-.633.161-1.26.253-1.887l-.374-.063c-.114.716-.802.751-1.42.745H99.274c-.576 0-1.206-.028-1.426-.714h-.404c-.003.667-.05 1.333-.145 1.993-.071.676-.183 1.325-.275 1.974h.525c.323-1.713.534-2.268 2.362-2.243v.217c-1.811.032-1.774.339-2.173 2.156l-.019.083h-.943l.014-.127c.098-.689.222-1.374.295-2.09.102-.682.15-1.364.15-2.07v-.107h.777l.017.077c.168.62.622.624 1.245.634h12.767c.683-.01 1.18-.02 1.222-.663l.01-.116.11.024.692.11-.015.106a49.234 49.234 0 0 0-.267 1.983c-.05.654-.05 1.319-.05 1.982v.077l-.067.027-.869.317-.006-.144c-.065-.923-.162-2.26-1.71-2.26h-3.912v12.972c.022 1.855.756 1.983 1.923 2.006h.575v.951h-.104zm5.165-.846h.345c.88 0 1.813-.119 1.813-1.399v-12.878c0-1.282-.932-1.403-1.813-1.403h-.345v-.738c1.492 0 4.045.097 6.1.097 2.063 0 4.607-.097 6.272-.097a41.755 41.755 0 0 0 .055 3.76l-.74.198c-.117-1.597-.41-2.874-2.986-2.874h-3.404v6.438h2.914c1.47 0 1.79-.834 1.935-2.165h.734a54.994 54.994 0 0 0 0 5.68l-.734.147c-.144-1.474-.219-2.432-1.912-2.432h-2.936v5.725c0 1.6 1.415 1.6 2.986 1.6 2.941 0 4.238-.199 4.974-2.997l.687.168a52.517 52.517 0 0 0-.831 3.912c-1.57 0-4.39-.097-6.593-.097-2.21 0-5.123.097-6.52.097v-.742z"/>
    <path fill="#211E1F" d="M127.848 224.63c-1.574 0-4.391-.1-6.592-.1-2.208 0-5.12.1-6.52.1h-.103v-.95h.447c.889-.014 1.694-.093 1.706-1.294v-12.879c-.012-1.2-.817-1.28-1.706-1.299h-.447v-.947h.103c1.496 0 4.045.094 6.1.094 2.061 0 4.604-.094 6.273-.094h.11l-.005.11a28.6 28.6 0 0 0-.024 1.269c0 .85.024 1.779.073 2.48l.004.088-.082.024-.861.225-.005-.126c-.145-1.595-.357-2.752-2.88-2.776h-3.303l-.003 6.222h2.814c1.41-.013 1.664-.738 1.83-2.062l.01-.097h.939l-.002.11a58.142 58.142 0 0 0-.078 2.874c0 .93.03 1.863.078 2.799l.002.087-.089.02-.85.17-.01-.115c-.168-1.5-.18-2.322-1.808-2.34l-2.833-.002v5.623c.002 1.493 1.286 1.484 2.884 1.493 2.95-.017 4.133-.16 4.873-2.922l.024-.099.103.02.785.202-.024.102c-.316 1.302-.61 2.601-.83 3.903l-.02.087h-.083zm-.09-.214a55.68 55.68 0 0 1 .794-3.721l-.485-.123c-.734 2.751-2.155 2.996-5.047 2.978-1.543 0-3.09 0-3.097-1.707v-5.832h3.046c1.711-.019 1.886 1.018 2.007 2.417l.53-.11a53.734 53.734 0 0 1 0-5.486l-.53-.001c-.136 1.28-.535 2.18-2.03 2.163h-3.023v-6.654h3.515c2.55-.018 2.972 1.302 3.081 2.848l.529-.143a41.716 41.716 0 0 1-.072-2.405c0-.421.01-.818.024-1.166-1.665.007-4.147.095-6.164.095-2.014 0-4.493-.088-5.994-.095v.521h.238c.873 0 1.917.154 1.92 1.512v12.879c-.003 1.354-1.047 1.504-1.92 1.511h-.238v.518c1.43-.001 4.26-.093 6.414-.093 2.161 0 4.921.092 6.502.093zm4.23-14.445c0-1.793-.978-1.867-1.741-1.867h-.44v-.74c.785 0 2.302.1 3.798.1 1.47 0 2.648-.1 3.945-.1 3.085 0 5.834.838 5.834 4.332 0 2.207-1.47 3.56-3.406 4.325l4.19 6.29c.686 1.04 1.174 1.33 2.377 1.474v.741c-.81 0-1.594-.097-2.402-.097-.76 0-1.546.097-2.303.097-1.886-2.483-3.507-5.139-5.1-7.968h-1.612v5.263c0 1.895.878 1.964 2.005 1.964h.442v.741c-1.4 0-2.816-.097-4.215-.097-1.178 0-2.33.097-3.553.097v-.741h.44c.91 0 1.742-.413 1.742-1.325v-12.49zm3.14 5.703h1.196c2.452 0 3.773-.934 3.773-3.835 0-2.185-1.396-3.588-3.58-3.588-.735 0-1.048.077-1.39.099v7.324z"/>
    <path fill="#211E1F" d="M146.545 224.63c-.821 0-1.601-.099-2.407-.099-.748 0-1.53.1-2.384.058-1.88-2.473-3.49-5.113-5.075-7.922h-1.448v5.151c.026 1.85.767 1.834 1.9 1.861h.55v.952h-.11c-1.4 0-2.822-.1-4.214-.1-1.171 0-2.32.1-3.55.1h-.108v-.952h.547c.884-.005 1.629-.39 1.632-1.218v-12.49c-.019-1.745-.87-1.735-1.632-1.76h-.547v-.953h.107c.794 0 2.306.097 3.799.097 1.463 0 2.64-.097 3.946-.097 3.088.007 5.933.862 5.941 4.431 0 2.221-1.463 3.607-3.355 4.38l4.118 6.184c.685 1.02 1.112 1.273 2.305 1.426l.09.014v.938h-.105zm-11.42-8.177h1.675l.029.054c1.597 2.824 3.206 5.476 5.011 7.914.748 0 1.535-.101 2.298-.101.783 0 1.538.085 2.301.097v-.538c-1.15-.144-1.689-.488-2.359-1.509l-4.264-6.4.12-.05c1.918-.756 3.337-2.07 3.339-4.231-.002-3.41-2.643-4.201-5.724-4.215-1.293 0-2.47.097-3.946.097-1.44 0-2.893-.09-3.695-.097v.521h.336c.762.002 1.846.128 1.846 1.976v12.49c0 .986-.923 1.436-1.846 1.438h-.336v.518c1.18-.003 2.296-.097 3.447-.097 1.37 0 2.753.094 4.109.097v-.518h-.335c-1.118-.002-2.114-.141-2.114-2.081v-5.365h.107zm0-.675h-.108v-7.527l.093-.008c.335-.026.667-.096 1.408-.096 2.233 0 3.684 1.456 3.687 3.697-.006 2.935-1.41 3.932-3.881 3.933h-1.2zm1.199-.212c2.426-.02 3.647-.865 3.673-3.722-.014-2.148-1.345-3.48-3.48-3.489-.662 0-.973.061-1.286.089v7.122h1.093zm26.86 4.115l.045-.048v-9.217c0-2.018-1.395-2.311-2.13-2.311h-.537v-.739c1.15 0 2.276.098 3.43.098 1.006 0 2.007-.098 3.018-.098v.739h-.369c-1.03 0-2.182.195-2.182 3.12v11.188c0 .859.024 1.718.145 2.48h-.93l-12.62-14.11v10.128c0 2.14.416 2.874 2.302 2.874h.417v.741c-1.052 0-2.107-.097-3.16-.097-1.106 0-2.233.097-3.334.097v-.741h.34c1.693 0 2.208-1.152 2.208-3.117v-10.354c0-1.376-1.127-2.21-2.228-2.21h-.32v-.737c.928 0 1.888.097 2.818.097.73 0 1.444-.097 2.18-.097l10.907 12.314z"/>
    <path fill="#211E1F" d="M164.605 224.999l-1.01-.034-12.438-13.904v9.85c.029 2.138.352 2.745 2.2 2.769h.52v.95h-.108c-1.06 0-2.11-.1-3.161-.1-1.095 0-2.227.1-3.33.1h-.11v-.95h.45c1.618-.007 2.082-1.052 2.098-3.019v-10.347c-.002-1.31-1.071-2.103-2.118-2.105h-.43v-.95h.11c.935 0 1.894.096 2.818.096.72 0 1.431-.097 2.254-.063l10.773 12.166v-9.044c-.007-1.953-1.312-2.195-2.024-2.205h-.648v-.95h.108c1.159 0 2.287.096 3.432.096 1 0 2.004-.097 3.014-.097h.106v.951h-.47c-1.011.027-2.053.118-2.079 3.017v11.185c0 .86.022 1.712.146 2.468l.014.12h-.117zm-.931-.215h.805c-.107-.738-.131-1.556-.131-2.373v-11.185c.002-2.95 1.242-3.223 2.293-3.232h.256v-.52c-.962.007-1.932.096-2.906.096-1.125 0-2.218-.089-3.328-.096v.52h.436c.754.009 2.24.34 2.24 2.42l-.034 9.293-.048.05-.074.08-10.908-12.362c-.727 0-1.438.095-2.179.095-.907 0-1.823-.089-2.715-.095v.52h.217c1.15.008 2.332.879 2.332 2.319v10.347c0 1.974-.554 3.23-2.311 3.237l-.238-.002v.52c1.058-.005 2.151-.094 3.227-.094 1.028 0 2.046.089 3.059.094v-.518h-.31c-1.93-.002-2.412-.849-2.416-2.988v-10.4l12.732 14.274zm-.49-5.105l.074-.07-.074.07zm-.061-.046v-.008l-.02-.019.02.027zm7.828 1.377c-.248.834-.544 1.478-.544 1.916 0 .74 1.032.86 1.838.86h.273v.74a55.421 55.421 0 0 0-2.97-.097c-.882 0-1.76.045-2.643.098v-.742h.148c.955 0 1.766-.564 2.127-1.598l3.926-11.28c.316-.91.762-2.14.91-3.05.78-.268 1.762-.76 2.226-1.056.076-.025.119-.051.196-.051.073 0 .12 0 .174.077.072.194.143.417.222.613l4.508 12.858c.294.859.585 1.768.903 2.507.295.689.812.98 1.623.98h.144v.742a69.43 69.43 0 0 0-3.38-.097c-1.202 0-2.43.044-3.68.097v-.742h.272c.561 0 1.52-.095 1.52-.71 0-.32-.221-.982-.495-1.771l-.953-2.852h-5.563l-.782 2.559zm3.576-10.89h-.05l-2.279 6.957h4.58l-2.251-6.957z"/>
    <path fill="#211E1F" d="M184.005 224.63c-1.103-.05-2.206-.1-3.373-.1-1.202 0-2.422.05-3.677.1l-.11.007v-.961h.377c.568 0 1.41-.13 1.41-.602.008-.28-.213-.954-.483-1.737l-.933-2.78h-5.406l-.762 2.484c-.248.838-.542 1.488-.54 1.888.008.6.924.747 1.737.747h.377v.96l-.11-.006c-.981-.05-1.982-.1-2.96-.1-.878 0-1.761.05-2.64.1l-.114.007v-.961h.253c.913-.004 1.674-.523 2.028-1.524l3.924-11.281c.321-.912.763-2.137.975-3.117a12.43 12.43 0 0 0 2.225-1.055c.068-.023.136-.057.236-.057a.302.302 0 0 1 .27.144c.07.202.147.42.221.62l4.514 12.856c.29.863.582 1.771.901 2.497.284.656.735.914 1.523.917h.25v.961l-.113-.007zm-6.946-.22c1.214-.042 2.402-.09 3.573-.09 1.138 0 2.204.048 3.27.09v-.513h-.035c-.839.005-1.419-.325-1.72-1.05-.32-.746-.618-1.658-.905-2.519l-4.513-12.854c-.074-.196-.146-.42-.21-.593-.02-.024-.016-.024-.036-.024h-.044c-.051 0-.08.015-.143.032-.472.309-1.456.791-2.182.984-.151.93-.591 2.157-.911 3.068l-3.922 11.282c-.374 1.067-1.233 1.676-2.23 1.674h-.039v.513c.84-.042 1.69-.09 2.54-.09.947 0 1.916.048 2.85.09v-.513h-.157c-.797-.01-1.912-.1-1.943-.968.002-.49.303-1.12.542-1.95l.107.033-.107-.036.807-2.628h5.714l.984 2.921c.275.79.498 1.444.498 1.805-.034.755-1.069.808-1.625.823h-.163v.513zm-5.01-7.228l2.347-7.17h.133v.107l-.027.005.027-.005v-.107h.073l2.326 7.17h-4.879zm.294-.213h4.29l-2.133-6.588-2.157 6.588zm2.079-6.82l.056-.018-.056.019zm10.668-1.555c-1.84 0-1.912.443-2.281 2.236h-.736c.096-.687.22-1.374.297-2.09.099-.688.143-1.374.143-2.086h.591c.196.738.811.712 1.469.712h12.65c.657 0 1.269-.023 1.32-.763l.586.099c-.093.664-.19 1.328-.265 1.992-.053.663-.053 1.328-.053 1.99l-.734.273c-.046-.908-.168-2.363-1.811-2.363h-4.02v13.079c0 1.895.86 2.112 2.033 2.112h.465v.741c-.955 0-2.668-.097-3.993-.097-1.469 0-3.187.097-4.142.097v-.741h.464c1.35 0 2.038-.121 2.038-2.061v-13.13h-4.021z"/>
    <path fill="#211E1F" d="M194.744 224.63c-.962 0-2.678-.1-3.994-.1-1.465 0-3.181.1-4.142.1h-.108v-.951h.572c1.351-.033 1.894-.05 1.928-1.955l-.004-13.023h-3.907v-.217h4.123v13.24c0 1.972-.794 2.166-2.14 2.17h-.36v.526c.97-.01 2.616-.099 4.038-.099 1.28 0 2.918.089 3.887.099v-.525h-.362c-1.178-.005-2.133-.29-2.136-2.222v-13.189h4.126c1.645.007 1.86 1.41 1.907 2.321l.535-.196c0-.64.002-1.283.05-1.927.067-.633.159-1.263.25-1.89l-.371-.064c-.112.716-.804.756-1.414.745h-12.774c-.578.007-1.203-.027-1.426-.717h-.4a14.606 14.606 0 0 1-.15 1.997c-.065.677-.186 1.328-.277 1.974h.525c.325-1.713.537-2.269 2.369-2.243v.217c-1.817.03-1.776.339-2.177 2.156l-.019.083h-.945l.015-.123c.102-.693.225-1.379.296-2.09.1-.686.148-1.368.148-2.074v-.107h.775l.02.077c.172.62.619.623 1.246.634l.124.003h12.65c.676-.013 1.17-.024 1.213-.664l.007-.118.115.024.695.11-.018.106a53.31 53.31 0 0 0-.269 1.983c-.05.654-.05 1.32-.05 1.982v.077l-.068.027-.87.317-.004-.144c-.063-.923-.16-2.26-1.708-2.26h-3.914v12.973c.026 1.854.758 1.982 1.924 2.006h.574v.95h-.105zm5.29-.846h.343c.885 0 1.811-.119 1.811-1.4v-12.877c0-1.282-.926-1.403-1.81-1.403h-.344v-.738c.957 0 2.425.097 3.623.097 1.23 0 2.7-.097 3.853-.097v.738h-.344c-.882 0-1.816.121-1.816 1.403v12.878c0 1.28.934 1.4 1.816 1.4h.344v.74c-1.178 0-2.65-.096-3.872-.096-1.203 0-2.647.097-3.604.097v-.742z"/>
    <path fill="#211E1F" d="M207.511 224.63c-1.184 0-2.651-.1-3.873-.1-1.198 0-2.646.1-3.603.1h-.107v-.951h.45c.886-.014 1.698-.09 1.702-1.294v-12.878c-.004-1.2-.816-1.282-1.702-1.299h-.45v-.947h.107c.957 0 2.429.093 3.623.093 1.222 0 2.692-.093 3.853-.093h.104v.947h-.447c-.896.017-1.7.099-1.712 1.299v12.878c.012 1.204.816 1.28 1.712 1.294h.447v.95h-.104zm-.11-.215v-.52h-.233c-.879 0-1.919-.155-1.919-1.51v-12.878c0-1.359 1.04-1.512 1.919-1.512h.233v-.521c-1.132.006-2.548.095-3.743.095-1.16 0-2.566-.089-3.516-.095v.521h.237c.871 0 1.915.153 1.918 1.512v12.878c-.003 1.355-1.047 1.51-1.918 1.51h-.237v.52c.945-.01 2.332-.094 3.496-.094 1.188 0 2.607.089 3.762.094zm9.883-17.417c5.224 0 9.388 3.249 9.388 8.483 0 5.655-4.043 9.413-9.26 9.413-5.201 0-9.168-3.54-9.168-8.825 0-5.112 3.943-9.071 9.04-9.071zm.37 16.814c4.756 0 5.583-4.207 5.583-7.791 0-3.593-1.93-7.942-6-7.942-4.29 0-5.563 3.834-5.563 7.126 0 4.4 2.009 8.607 5.98 8.607z"/>
    <path fill="#211E1F" d="M208.135 216.069c.01-5.171 4-9.171 9.148-9.178v.211c-5.037 0-8.936 3.908-8.94 8.967.011 5.226 3.922 8.713 9.068 8.714 5.166-.001 9.152-3.707 9.16-9.307-.005-5.168-4.106-8.367-9.287-8.374v-.211c5.265.003 9.484 3.284 9.495 8.585-.005 5.714-4.101 9.512-9.368 9.522-5.241-.01-9.266-3.586-9.276-8.93v.001zm3.433-.864c.007-3.306 1.295-7.237 5.67-7.237 4.16.01 6.103 4.442 6.11 8.053-.008 3.585-.849 7.893-5.692 7.893v-.208c4.66-.006 5.467-4.1 5.479-7.685 0-3.563-1.914-7.83-5.897-7.835-4.205.005-5.45 3.745-5.457 7.019.003 4.378 1.993 8.491 5.875 8.501v.208c-4.069-.005-6.081-4.283-6.088-8.71zm31.62 4.476l.05-.048v-9.217c0-2.018-1.4-2.311-2.137-2.311h-.53v-.739c1.149 0 2.276.097 3.424.097 1.008 0 2.012-.097 3.019-.097v.739h-.37c-1.028 0-2.181.195-2.181 3.12v11.188c0 .859.024 1.718.148 2.48h-.93l-12.624-14.11v10.128c0 2.14.415 2.874 2.301 2.874h.42v.741c-1.056 0-2.107-.097-3.161-.097-1.103 0-2.233.097-3.336.097v-.741h.345c1.694 0 2.202-1.152 2.202-3.117v-10.354c0-1.376-1.122-2.21-2.228-2.21h-.32v-.737c.932 0 1.889.097 2.818.097.736 0 1.445-.097 2.183-.097l10.907 12.314z"/>
    <path fill="#211E1F" d="M244.611 224.999l-1.014-.036-12.435-13.903v9.852c.027 2.137.351 2.742 2.192 2.764h.53v.955h-.107c-1.062 0-2.114-.1-3.161-.1-1.1 0-2.225.1-3.338.1h-.102v-.955h.449c1.616-.005 2.08-1.048 2.1-3.008v-10.354c-.003-1.309-1.072-2.103-2.126-2.105h-.423v-.948h.102c.94 0 1.895.094 2.82.094.727 0 1.434-.094 2.263-.058l10.768 12.161v-9.04c-.007-1.956-1.312-2.192-2.03-2.209h-.643v-.947h.11c1.154 0 2.284.094 3.425.094 1.006 0 2.005-.094 3.021-.094h.106v.947h-.476c-1.008.03-2.051.121-2.072 3.017v11.186c0 .859.019 1.716.138 2.468l.02.119h-.117zm-.93-.215h.801c-.107-.738-.125-1.556-.125-2.373v-11.185c0-2.956 1.235-3.223 2.286-3.232h.265v-.52c-.967.007-1.936.096-2.916.096-1.115 0-2.212-.089-3.321-.096v.52h.43c.76.009 2.238.345 2.238 2.424l-.027 9.289-.046.05-.078.08-10.908-12.362c-.722 0-1.438.095-2.182.095-.902 0-1.822-.089-2.714-.095v.52h.216c1.15.008 2.335.879 2.335 2.319v10.354c0 1.965-.547 3.223-2.31 3.23l-.241-.002v.52c1.064-.005 2.155-.094 3.232-.094 1.022 0 2.036.089 3.055.094v-.518h-.317c-1.923-.002-2.404-.849-2.404-2.986v-10.406l12.73 14.278zm-.494-5.105l.078-.07-.078.07zm-.057-.046v-.008l-.02-.019.02.027zm7.821 1.377c-.24.834-.537 1.478-.537 1.916 0 .74 1.032.86 1.836.86h.273v.74a55.475 55.475 0 0 0-2.967-.097c-.886 0-1.764.045-2.643.098v-.742h.14c.96 0 1.772-.564 2.134-1.598l3.926-11.28c.316-.91.76-2.14.903-3.05a12.63 12.63 0 0 0 2.234-1.056c.07-.025.12-.051.194-.051.073 0 .119 0 .168.077.075.194.152.417.225.613l4.507 12.858c.294.859.586 1.768.909 2.507.294.689.81.98 1.616.98h.15v.742a69.542 69.542 0 0 0-3.386-.097 87.38 87.38 0 0 0-3.676.097v-.742h.272c.56 0 1.521-.095 1.521-.71 0-.32-.223-.982-.496-1.771l-.952-2.852h-5.564l-.787 2.559zm3.583-10.89h-.05l-2.282 6.957h4.587l-2.255-6.957z"/>
    <path fill="#211E1F" d="M264.008 224.63c-1.103-.044-2.204-.099-3.375-.099-1.194 0-2.421.055-3.672.1l-.109.006v-.958h.372c.57 0 1.416-.133 1.417-.605.005-.28-.215-.95-.489-1.737l-.931-2.78h-5.41l-.758 2.484c-.244.842-.537 1.488-.532 1.885 0 .603.918.753 1.729.753h.374v.958l-.11-.007c-.98-.044-1.983-.099-2.958-.099-.879 0-1.76.055-2.643.1l-.107.006v-.958h.247c.914-.003 1.679-.53 2.036-1.527l3.922-11.281c.313-.912.754-2.137.972-3.114.77-.268 1.754-.758 2.23-1.059.064-.022.13-.05.23-.05a.275.275 0 0 1 .27.142c.072.193.144.416.225.616l4.507 12.856c.293.862.587 1.77.904 2.502.288.651.735.908 1.516.915h.255v.958l-.112-.007zm-6.945-.216c1.211-.046 2.404-.094 3.57-.094 1.14 0 2.21.048 3.277.09l-.004-.513h-.04c-.83.002-1.409-.325-1.713-1.05-.323-.746-.616-1.658-.908-2.516l-4.51-12.857c-.074-.196-.148-.42-.208-.586-.02-.031-.018-.031-.037-.031h-.046c-.051 0-.079.017-.138.034-.477.302-1.46.792-2.185.982-.152.93-.597 2.156-.913 3.068l-3.924 11.283c-.372 1.066-1.229 1.675-2.232 1.673h-.035v.513c.843-.042 1.685-.09 2.539-.09.95 0 1.917.048 2.86.09v-.513h-.167c-.796-.01-1.915-.097-1.944-.971.005-.488.31-1.113.546-1.947l.1.033-.1-.036.807-2.628h5.716l.982 2.92c.27.792.493 1.445.493 1.806-.036.755-1.064.808-1.625.823h-.162v.517zm-5.007-7.234l2.35-7.168h.128v.107l-.026.005.026-.005v-.107h.076l2.317 7.168h-4.871zm.294-.211h4.286l-2.131-6.584-2.155 6.584zm2.082-6.819l.049-.019-.05.019zm15.762 11.966c0 .984.68 1.277 1.465 1.377 1.005.075 2.108.075 3.24-.05 1.026-.123 1.91-.713 2.348-1.327.391-.542.612-1.23.76-1.77h.71c-.268 1.4-.612 2.78-.907 4.18-2.152 0-4.313-.097-6.467-.097-2.16 0-4.313.097-6.47.097v-.741h.337c.887 0 1.846-.12 1.846-1.645v-12.633c0-1.282-.96-1.402-1.846-1.402h-.337v-.738c1.295 0 2.572.097 3.868.097 1.254 0 2.478-.097 3.729-.097v.738h-.617c-.928 0-1.659.027-1.659 1.326v12.685z"/>
    <path fill="#211E1F" d="M277.81 224.63c-2.16 0-4.316-.098-6.466-.098-2.159 0-4.315.098-6.475.098h-.104v-.95h.445c.89-.021 1.729-.082 1.739-1.54v-12.637c-.01-1.195-.845-1.277-1.739-1.294h-.445v-.948h.104c1.303 0 2.58.094 3.874.094 1.245 0 2.468-.094 3.727-.094h.101v.948h-.716c-.95.027-1.541-.017-1.56 1.222v12.686c.007.915.605 1.162 1.37 1.27.433.03.887.049 1.36.049.6 0 1.223-.029 1.856-.097.999-.118 1.859-.696 2.28-1.282.378-.525.595-1.2.741-1.737l.023-.081h.922l-.022.13c-.277 1.405-.613 2.78-.91 4.178l-.02.084h-.085zm-.088-.214c.284-1.333.605-2.637.869-3.966h-.504c-.153.535-.37 1.194-.756 1.731-.457.638-1.365 1.238-2.427 1.369-.642.066-1.278.1-1.88.1-.474 0-.934-.022-1.378-.053-.797-.088-1.57-.43-1.567-1.48V209.43c0-1.365.862-1.435 1.776-1.435h.507v-.522c-1.208.007-2.398.097-3.619.097-1.269 0-2.51-.09-3.767-.097v.522h.234c.875 0 1.946.153 1.946 1.506v12.638c0 1.59-1.066 1.756-1.946 1.756h-.234v.52c2.119-.002 4.238-.094 6.368-.094s4.257.092 6.378.094zm.698-17.748c1.477 0 2.58 1.139 2.58 2.597 0 1.453-1.103 2.58-2.58 2.58s-2.581-1.127-2.581-2.58c0-1.458 1.104-2.597 2.581-2.597zm0 4.696c1.154 0 2.042-.989 2.042-2.099 0-1.116-.874-2.113-2.042-2.113-1.16 0-2.048.997-2.048 2.113 0 1.11.888 2.099 2.048 2.099zm-1.285-.735v-.128c.318-.044.376-.034.376-.232v-1.915c0-.27-.03-.362-.364-.348v-.131h1.32c.456 0 .873.216.873.687 0 .385-.255.67-.61.78l.423.593c.198.27.421.522.569.61v.084h-.503c-.241 0-.452-.51-.928-1.193h-.286v.86c0 .17.06.16.378.205v.128h-1.248zm.87-1.364h.305c.333 0 .489-.253.489-.66 0-.413-.241-.558-.506-.558h-.288v1.218zM72.294 170.997c0-4.063-2.113-3.796-4.139-3.84v-1.174c1.756.087 3.556.087 5.315.087 1.891 0 4.46-.087 7.793-.087 11.662 0 18.013 7.813 18.013 15.813 0 4.474-2.61 15.72-18.555 15.72-2.296 0-4.415-.088-6.53-.088-2.027 0-4.01.045-6.036.089v-1.173c2.7-.273 4.01-.363 4.138-3.436v-21.91zm4.415 21.19c0 3.479 2.48 3.885 4.685 3.885 9.732 0 12.927-7.365 12.927-14.097 0-8.445-5.406-14.544-14.097-14.544-1.85 0-2.7.133-3.515.181v24.575zm24.148 4.157h.853c1.26 0 2.162 0 2.162-1.494v-12.241c0-1.986-.675-2.262-2.342-3.16v-.724c2.116-.638 4.641-1.49 4.818-1.626.318-.181.586-.229.812-.229.223 0 .317.273.317.636v17.344c0 1.494.99 1.494 2.251 1.494h.765v1.175c-1.533 0-3.11-.09-4.728-.09-1.621 0-3.244.044-4.908.09v-1.175zm4.818-26.43c-1.173 0-2.206-1.083-2.206-2.258 0-1.131 1.081-2.173 2.206-2.173 1.167 0 2.208.953 2.208 2.173 0 1.22-.995 2.259-2.208 2.259zm9.097 12.964c0-1.67-.498-2.12-2.61-2.979v-.857c1.935-.632 3.78-1.22 5.943-2.171.134 0 .266.092.266.451v2.938c2.572-1.85 4.78-3.39 7.801-3.39 3.824 0 5.175 2.802 5.175 6.325v11.655c0 1.494.99 1.494 2.253 1.494h.811v1.175c-1.58 0-3.156-.09-4.774-.09-1.623 0-3.246.044-4.865.09v-1.175h.808c1.265 0 2.16 0 2.16-1.494v-11.698c0-2.578-1.568-3.841-4.14-3.841-1.439 0-3.737 1.174-5.229 2.17v13.368c0 1.495.996 1.495 2.259 1.495h.809v1.175c-1.576 0-3.154-.09-4.776-.09-1.62 0-3.244.044-4.864.09v-1.175h.813c1.26 0 2.16 0 2.16-1.495v-11.97zm23.064 2.171c-.094.408-.094 1.084 0 2.622.265 4.29 3.02 7.813 6.617 7.813 2.48 0 4.42-1.355 6.085-3.026l.628.635c-2.073 2.754-4.64 5.102-8.33 5.102-7.164 0-8.605-6.959-8.605-9.847 0-8.856 5.944-11.478 9.095-11.478 3.65 0 7.572 2.303 7.614 7.092 0 .274 0 .542-.042.816l-.408.271h-12.654zm7.974-1.446c1.123 0 1.256-.588 1.256-1.129 0-2.304-1.396-4.157-3.92-4.157-2.744 0-4.636 2.03-5.176 5.286h7.84zm6.167 12.741h1.217c1.257 0 2.158 0 2.158-1.494v-12.693c0-1.4-1.663-1.672-2.341-2.033v-.675c3.288-1.403 5.091-2.579 5.5-2.579.268 0 .4.137.4.59v4.065h.095c1.124-1.76 3.019-4.655 5.763-4.655 1.127 0 2.567.767 2.567 2.395 0 1.22-.854 2.308-2.114 2.308-1.402 0-1.402-1.088-2.976-1.088-.767 0-3.287 1.04-3.287 3.751v10.614c0 1.494.899 1.494 2.162 1.494h2.52v1.175c-2.478-.046-4.363-.09-6.303-.09-1.846 0-3.74.044-5.36.09v-1.175zm17.342-5.108c.587 2.983 2.386 5.514 5.676 5.514 2.652 0 3.644-1.626 3.644-3.207 0-5.332-9.816-3.615-9.816-10.888 0-2.531 2.029-5.785 6.98-5.785 1.44 0 3.376.41 5.132 1.314l.319 4.604h-1.038c-.45-2.843-2.024-4.47-4.91-4.47-1.801 0-3.511 1.04-3.511 2.98 0 5.29 10.448 3.66 10.448 10.752 0 2.98-2.387 6.146-7.748 6.146-1.801 0-3.917-.633-5.492-1.534l-.497-5.197.813-.229zm53.595-17.076h-1.123c-.857-5.283-4.595-7.409-9.638-7.409-5.183 0-12.705 3.477-12.705 14.319 0 9.132 6.49 15.68 13.424 15.68 4.458 0 8.154-3.071 9.055-7.816l1.033.269-1.033 6.596c-1.892 1.177-6.982 2.396-9.958 2.396-10.536 0-17.2-6.822-17.2-16.987 0-9.262 8.24-15.905 17.068-15.905 3.647 0 7.16 1.179 10.628 2.4l.449 6.457zm1.625 22.184h.853c1.263 0 2.167 0 2.167-1.494v-25.16c0-2.939-.676-3.029-2.39-3.525v-.723c1.802-.586 3.694-1.4 4.64-1.944.49-.27.855-.498.988-.498.275 0 .365.273.365.636v31.214c0 1.494.989 1.494 2.252 1.494h.76v1.175c-1.525 0-3.102-.09-4.725-.09-1.62 0-3.241.044-4.91.09v-1.175zm28.92-1.314c0 .817.493.861 1.257.861.542 0 1.216-.044 1.803-.044v.95c-1.938.18-5.632 1.13-6.488 1.398l-.226-.136v-3.656c-2.7 2.212-4.774 3.792-7.974 3.792-2.432 0-4.954-1.58-4.954-5.372v-11.57c0-1.173-.18-2.304-2.697-2.528v-.86c1.623-.044 5.219-.315 5.807-.315.5 0 .5.316.5 1.31v11.652c0 1.358 0 5.242 3.915 5.242 1.53 0 3.557-1.174 5.447-2.75v-12.16c0-.9-2.16-1.395-3.778-1.849v-.813c4.048-.272 6.575-.632 7.023-.632.365 0 .365.315.365.815v16.665zm8.962-14.906c1.8-1.536 4.23-3.254 6.71-3.254 5.227 0 8.376 4.568 8.376 9.488 0 5.918-4.322 11.837-10.767 11.837-3.331 0-5.086-1.085-6.26-1.58l-1.348 1.036-.943-.494c.399-2.665.629-5.287.629-8.041V169.69c0-2.939-.68-3.029-2.39-3.525v-.723c1.807-.586 3.693-1.4 4.64-1.944.496-.27.854-.498.994-.498.268 0 .358.273.358.636v16.488zm0 12.287c0 1.718 1.619 4.612 4.638 4.612 4.819 0 6.845-4.747 6.845-8.769 0-4.878-3.69-8.943-7.204-8.943-1.671 0-3.064 1.086-4.28 2.127v10.973zM68.104 223.785h.345c.88 0 1.811-.12 1.811-1.4v-12.878c0-1.282-.931-1.403-1.811-1.403h-.345v-.738c.957 0 2.427.098 3.632.098 1.223 0 2.692-.098 3.844-.098v.738h-.345c-.879 0-1.812.121-1.812 1.403v12.878c0 1.28.933 1.4 1.812 1.4h.345v.741c-1.176 0-2.65-.097-3.872-.097-1.201 0-2.647.097-3.604.097v-.741z"/>
    <path fill="#211E1F" d="M75.581 224.63c-1.184 0-2.652-.099-3.873-.099-1.198 0-2.639.099-3.603.099H68v-.951h.449c.888-.02 1.697-.092 1.706-1.294v-12.878c-.009-1.202-.818-1.282-1.706-1.299H68v-.951h.105c.964 0 2.432.097 3.63.097 1.22 0 2.687-.097 3.846-.097h.11v.951h-.453c-.889.017-1.703.097-1.708 1.299v12.878c.005 1.202.819 1.273 1.708 1.294h.452v.95h-.109zm-.105-.21v-.525h-.238c-.875 0-1.917-.152-1.922-1.51v-12.878c.005-1.359 1.047-1.512 1.922-1.512h.238v-.522c-1.132 0-2.551.096-3.74.096-1.165 0-2.574-.089-3.522-.096v.522h.234c.874 0 1.92.153 1.92 1.512v12.878c0 1.359-1.046 1.51-1.92 1.51h-.234v.525c.948-.01 2.333-.099 3.494-.099 1.193 0 2.612.092 3.768.099zm16.942-4.74l.05-.048v-9.217c0-2.018-1.4-2.31-2.133-2.31h-.541v-.74c1.154 0 2.28.098 3.431.098 1.004 0 2.014-.097 3.017-.097v.738h-.367c-1.032 0-2.184.196-2.184 3.12v11.188c0 .86.025 1.718.146 2.48h-.933l-12.619-14.11v10.129c0 2.139.413 2.873 2.303 2.873h.415v.742c-1.052 0-2.104-.097-3.16-.097-1.1 0-2.228.097-3.332.097v-.742h.343c1.691 0 2.204-1.152 2.204-3.117v-10.354c0-1.375-1.13-2.209-2.228-2.209h-.32v-.738c.932 0 1.887.097 2.817.097.736 0 1.448-.097 2.182-.097l10.91 12.314z"/>
    <path fill="#211E1F" d="M93.836 225l-1.01-.038-12.438-13.902v9.851c.03 2.138.354 2.744 2.2 2.768h.525v.951h-.11c-1.06 0-2.115-.099-3.16-.099-1.098 0-2.223.1-3.335.1h-.107v-.952h.452c1.62-.008 2.082-1.051 2.1-3.011v-10.353c-.003-1.309-1.073-2.103-2.124-2.106h-.428v-.948h.107c.937 0 1.897.094 2.816.094.73 0 1.44-.094 2.266-.058l10.77 12.16v-9.04c-.013-1.956-1.313-2.191-2.027-2.208h-.649v-.948h.109c1.158 0 2.286.094 3.431.094.998 0 2.002-.094 3.015-.094h.107v.947h-.472c-1.011.03-2.05.118-2.078 3.017v11.186c0 .859.025 1.718.144 2.463l.024.126h-.128zm-.93-.217h.81c-.11-.738-.13-1.556-.13-2.372v-11.186c0-2.95 1.233-3.23 2.288-3.23h.259v-.521c-.966.007-1.934.095-2.908.095-1.122 0-2.213-.088-3.323-.095l-.001.521h.433c.753 0 2.24.338 2.24 2.422l-.034 9.289-.05.051-.082.077-10.9-12.36c-.727 0-1.437.095-2.183.095-.9 0-1.819-.088-2.707-.095l-.006.521h.218c1.15 0 2.332.881 2.332 2.32v10.352c0 1.965-.546 3.223-2.308 3.23l-.236-.007v.53c1.062-.01 2.153-.099 3.225-.099 1.023 0 2.041.09 3.054.1v-.524h-.31c-1.928-.007-2.407-.849-2.41-2.986v-10.405l12.728 14.277zm-.489-5.104l.078-.072-.078.072zm-.056-.048v-.008l-.02-.017.02.025zm7.55-11.037c-1.841 0-1.91.443-2.278 2.236h-.736c.097-.687.22-1.374.294-2.09.099-.688.146-1.374.146-2.086h.59c.197.738.81.712 1.474.712h12.642c.663 0 1.275-.023 1.326-.763l.584.099c-.095.664-.194 1.328-.268 1.992-.044.663-.044 1.328-.044 1.99l-.738.274c-.051-.909-.173-2.364-1.813-2.364h-4.02v13.079c0 1.895.859 2.112 2.031 2.112h.468v.741c-.956 0-2.674-.097-3.994-.097-1.47 0-3.188.097-4.145.097v-.741h.467c1.351 0 2.034-.121 2.034-2.061v-13.13h-4.02z"/>
    <path fill="#211E1F" d="M109.572 224.63c-.965 0-2.68-.099-3.997-.099-1.468 0-3.183.099-4.145.099h-.102v-.951h.57c1.35-.032 1.894-.05 1.925-1.955V208.7H99.91v-.217h4.124v13.24c0 1.972-.791 2.171-2.137 2.173h-.36v.518c.966-.005 2.615-.094 4.037-.094 1.278 0 2.917.089 3.885.094v-.518h-.358c-1.185-.002-2.138-.293-2.138-2.224v-13.189h4.126c1.645.007 1.86 1.41 1.914 2.322l.528-.196c0-.641.004-1.284.048-1.931.071-.633.161-1.26.253-1.887l-.374-.063c-.114.716-.802.751-1.42.745H99.274c-.576 0-1.206-.028-1.426-.714h-.404c-.003.667-.05 1.333-.145 1.993-.071.676-.183 1.325-.275 1.974h.525c.323-1.713.534-2.268 2.362-2.243v.217c-1.811.032-1.774.339-2.173 2.156l-.019.083h-.943l.014-.127c.098-.689.222-1.374.295-2.09.102-.682.15-1.364.15-2.07v-.107h.777l.017.077c.168.62.622.624 1.245.634h12.767c.683-.01 1.18-.02 1.222-.663l.01-.116.11.024.692.11-.015.106a49.234 49.234 0 0 0-.267 1.983c-.05.654-.05 1.319-.05 1.982v.077l-.067.027-.869.317-.006-.144c-.065-.923-.162-2.26-1.71-2.26h-3.912v12.972c.022 1.855.756 1.983 1.923 2.006h.575v.951h-.104zm5.165-.846h.345c.88 0 1.813-.119 1.813-1.399v-12.878c0-1.282-.932-1.403-1.813-1.403h-.345v-.738c1.492 0 4.045.097 6.1.097 2.063 0 4.607-.097 6.272-.097a41.755 41.755 0 0 0 .055 3.76l-.74.198c-.117-1.597-.41-2.874-2.986-2.874h-3.404v6.438h2.914c1.47 0 1.79-.834 1.935-2.165h.734a54.994 54.994 0 0 0 0 5.68l-.734.147c-.144-1.474-.219-2.432-1.912-2.432h-2.936v5.725c0 1.6 1.415 1.6 2.986 1.6 2.941 0 4.238-.199 4.974-2.997l.687.168a52.517 52.517 0 0 0-.831 3.912c-1.57 0-4.39-.097-6.593-.097-2.21 0-5.123.097-6.52.097v-.742z"/>
    <path fill="#211E1F" d="M127.848 224.63c-1.574 0-4.391-.1-6.592-.1-2.208 0-5.12.1-6.52.1h-.103v-.95h.447c.889-.014 1.694-.093 1.706-1.294v-12.879c-.012-1.2-.817-1.28-1.706-1.299h-.447v-.947h.103c1.496 0 4.045.094 6.1.094 2.061 0 4.604-.094 6.273-.094h.11l-.005.11a28.6 28.6 0 0 0-.024 1.269c0 .85.024 1.779.073 2.48l.004.088-.082.024-.861.225-.005-.126c-.145-1.595-.357-2.752-2.88-2.776h-3.303l-.003 6.222h2.814c1.41-.013 1.664-.738 1.83-2.062l.01-.097h.939l-.002.11a58.142 58.142 0 0 0-.078 2.874c0 .93.03 1.863.078 2.799l.002.087-.089.02-.85.17-.01-.115c-.168-1.5-.18-2.322-1.808-2.34l-2.833-.002v5.623c.002 1.493 1.286 1.484 2.884 1.493 2.95-.017 4.133-.16 4.873-2.922l.024-.099.103.02.785.202-.024.102c-.316 1.302-.61 2.601-.83 3.903l-.02.087h-.083zm-.09-.214a55.68 55.68 0 0 1 .794-3.721l-.485-.123c-.734 2.751-2.155 2.996-5.047 2.978-1.543 0-3.09 0-3.097-1.707v-5.832h3.046c1.711-.019 1.886 1.018 2.007 2.417l.53-.11a53.734 53.734 0 0 1 0-5.486l-.53-.001c-.136 1.28-.535 2.18-2.03 2.163h-3.023v-6.654h3.515c2.55-.018 2.972 1.302 3.081 2.848l.529-.143a41.716 41.716 0 0 1-.072-2.405c0-.421.01-.818.024-1.166-1.665.007-4.147.095-6.164.095-2.014 0-4.493-.088-5.994-.095v.521h.238c.873 0 1.917.154 1.92 1.512v12.879c-.003 1.354-1.047 1.504-1.92 1.511h-.238v.518c1.43-.001 4.26-.093 6.414-.093 2.161 0 4.921.092 6.502.093zm4.23-14.445c0-1.793-.978-1.867-1.741-1.867h-.44v-.74c.785 0 2.302.1 3.798.1 1.47 0 2.648-.1 3.945-.1 3.085 0 5.834.838 5.834 4.332 0 2.207-1.47 3.56-3.406 4.325l4.19 6.29c.686 1.04 1.174 1.33 2.377 1.474v.741c-.81 0-1.594-.097-2.402-.097-.76 0-1.546.097-2.303.097-1.886-2.483-3.507-5.139-5.1-7.968h-1.612v5.263c0 1.895.878 1.964 2.005 1.964h.442v.741c-1.4 0-2.816-.097-4.215-.097-1.178 0-2.33.097-3.553.097v-.741h.44c.91 0 1.742-.413 1.742-1.325v-12.49zm3.14 5.703h1.196c2.452 0 3.773-.934 3.773-3.835 0-2.185-1.396-3.588-3.58-3.588-.735 0-1.048.077-1.39.099v7.324z"/>
    <path fill="#211E1F" d="M146.545 224.63c-.821 0-1.601-.099-2.407-.099-.748 0-1.53.1-2.384.058-1.88-2.473-3.49-5.113-5.075-7.922h-1.448v5.151c.026 1.85.767 1.834 1.9 1.861h.55v.952h-.11c-1.4 0-2.822-.1-4.214-.1-1.171 0-2.32.1-3.55.1h-.108v-.952h.547c.884-.005 1.629-.39 1.632-1.218v-12.49c-.019-1.745-.87-1.735-1.632-1.76h-.547v-.953h.107c.794 0 2.306.097 3.799.097 1.463 0 2.64-.097 3.946-.097 3.088.007 5.933.862 5.941 4.431 0 2.221-1.463 3.607-3.355 4.38l4.118 6.184c.685 1.02 1.112 1.273 2.305 1.426l.09.014v.938h-.105zm-11.42-8.177h1.675l.029.054c1.597 2.824 3.206 5.476 5.011 7.914.748 0 1.535-.101 2.298-.101.783 0 1.538.085 2.301.097v-.538c-1.15-.144-1.689-.488-2.359-1.509l-4.264-6.4.12-.05c1.918-.756 3.337-2.07 3.339-4.231-.002-3.41-2.643-4.201-5.724-4.215-1.293 0-2.47.097-3.946.097-1.44 0-2.893-.09-3.695-.097v.521h.336c.762.002 1.846.128 1.846 1.976v12.49c0 .986-.923 1.436-1.846 1.438h-.336v.518c1.18-.003 2.296-.097 3.447-.097 1.37 0 2.753.094 4.109.097v-.518h-.335c-1.118-.002-2.114-.141-2.114-2.081v-5.365h.107zm0-.675h-.108v-7.527l.093-.008c.335-.026.667-.096 1.408-.096 2.233 0 3.684 1.456 3.687 3.697-.006 2.935-1.41 3.932-3.881 3.933h-1.2zm1.199-.212c2.426-.02 3.647-.865 3.673-3.722-.014-2.148-1.345-3.48-3.48-3.489-.662 0-.973.061-1.286.089v7.122h1.093zm26.86 4.115l.045-.048v-9.217c0-2.018-1.395-2.311-2.13-2.311h-.537v-.739c1.15 0 2.276.098 3.43.098 1.006 0 2.007-.098 3.018-.098v.739h-.369c-1.03 0-2.182.195-2.182 3.12v11.188c0 .859.024 1.718.145 2.48h-.93l-12.62-14.11v10.128c0 2.14.416 2.874 2.302 2.874h.417v.741c-1.052 0-2.107-.097-3.16-.097-1.106 0-2.233.097-3.334.097v-.741h.34c1.693 0 2.208-1.152 2.208-3.117v-10.354c0-1.376-1.127-2.21-2.228-2.21h-.32v-.737c.928 0 1.888.097 2.818.097.73 0 1.444-.097 2.18-.097l10.907 12.314z"/>
    <path fill="#211E1F" d="M164.605 224.999l-1.01-.034-12.438-13.904v9.85c.029 2.138.352 2.745 2.2 2.769h.52v.95h-.108c-1.06 0-2.11-.1-3.161-.1-1.095 0-2.227.1-3.33.1h-.11v-.95h.45c1.618-.007 2.082-1.052 2.098-3.019v-10.347c-.002-1.31-1.071-2.103-2.118-2.105h-.43v-.95h.11c.935 0 1.894.096 2.818.096.72 0 1.431-.097 2.254-.063l10.773 12.166v-9.044c-.007-1.953-1.312-2.195-2.024-2.205h-.648v-.95h.108c1.159 0 2.287.096 3.432.096 1 0 2.004-.097 3.014-.097h.106v.951h-.47c-1.011.027-2.053.118-2.079 3.017v11.185c0 .86.022 1.712.146 2.468l.014.12h-.117zm-.931-.215h.805c-.107-.738-.131-1.556-.131-2.373v-11.185c.002-2.95 1.242-3.223 2.293-3.232h.256v-.52c-.962.007-1.932.096-2.906.096-1.125 0-2.218-.089-3.328-.096v.52h.436c.754.009 2.24.34 2.24 2.42l-.034 9.293-.048.05-.074.08-10.908-12.362c-.727 0-1.438.095-2.179.095-.907 0-1.823-.089-2.715-.095v.52h.217c1.15.008 2.332.879 2.332 2.319v10.347c0 1.974-.554 3.23-2.311 3.237l-.238-.002v.52c1.058-.005 2.151-.094 3.227-.094 1.028 0 2.046.089 3.059.094v-.518h-.31c-1.93-.002-2.412-.849-2.416-2.988v-10.4l12.732 14.274zm-.49-5.105l.074-.07-.074.07zm-.061-.046v-.008l-.02-.019.02.027zm7.828 1.377c-.248.834-.544 1.478-.544 1.916 0 .74 1.032.86 1.838.86h.273v.74a55.421 55.421 0 0 0-2.97-.097c-.882 0-1.76.045-2.643.098v-.742h.148c.955 0 1.766-.564 2.127-1.598l3.926-11.28c.316-.91.762-2.14.91-3.05.78-.268 1.762-.76 2.226-1.056.076-.025.119-.051.196-.051.073 0 .12 0 .174.077.072.194.143.417.222.613l4.508 12.858c.294.859.585 1.768.903 2.507.295.689.812.98 1.623.98h.144v.742a69.43 69.43 0 0 0-3.38-.097c-1.202 0-2.43.044-3.68.097v-.742h.272c.561 0 1.52-.095 1.52-.71 0-.32-.221-.982-.495-1.771l-.953-2.852h-5.563l-.782 2.559zm3.576-10.89h-.05l-2.279 6.957h4.58l-2.251-6.957z"/>
    <path fill="#211E1F" d="M184.005 224.63c-1.103-.05-2.206-.1-3.373-.1-1.202 0-2.422.05-3.677.1l-.11.007v-.961h.377c.568 0 1.41-.13 1.41-.602.008-.28-.213-.954-.483-1.737l-.933-2.78h-5.406l-.762 2.484c-.248.838-.542 1.488-.54 1.888.008.6.924.747 1.737.747h.377v.96l-.11-.006c-.981-.05-1.982-.1-2.96-.1-.878 0-1.761.05-2.64.1l-.114.007v-.961h.253c.913-.004 1.674-.523 2.028-1.524l3.924-11.281c.321-.912.763-2.137.975-3.117a12.43 12.43 0 0 0 2.225-1.055c.068-.023.136-.057.236-.057a.302.302 0 0 1 .27.144c.07.202.147.42.221.62l4.514 12.856c.29.863.582 1.771.901 2.497.284.656.735.914 1.523.917h.25v.961l-.113-.007zm-6.946-.22c1.214-.042 2.402-.09 3.573-.09 1.138 0 2.204.048 3.27.09v-.513h-.035c-.839.005-1.419-.325-1.72-1.05-.32-.746-.618-1.658-.905-2.519l-4.513-12.854c-.074-.196-.146-.42-.21-.593-.02-.024-.016-.024-.036-.024h-.044c-.051 0-.08.015-.143.032-.472.309-1.456.791-2.182.984-.151.93-.591 2.157-.911 3.068l-3.922 11.282c-.374 1.067-1.233 1.676-2.23 1.674h-.039v.513c.84-.042 1.69-.09 2.54-.09.947 0 1.916.048 2.85.09v-.513h-.157c-.797-.01-1.912-.1-1.943-.968.002-.49.303-1.12.542-1.95l.107.033-.107-.036.807-2.628h5.714l.984 2.921c.275.79.498 1.444.498 1.805-.034.755-1.069.808-1.625.823h-.163v.513zm-5.01-7.228l2.347-7.17h.133v.107l-.027.005.027-.005v-.107h.073l2.326 7.17h-4.879zm.294-.213h4.29l-2.133-6.588-2.157 6.588zm2.079-6.82l.056-.018-.056.019zm10.668-1.555c-1.84 0-1.912.443-2.281 2.236h-.736c.096-.687.22-1.374.297-2.09.099-.688.143-1.374.143-2.086h.591c.196.738.811.712 1.469.712h12.65c.657 0 1.269-.023 1.32-.763l.586.099c-.093.664-.19 1.328-.265 1.992-.053.663-.053 1.328-.053 1.99l-.734.273c-.046-.908-.168-2.363-1.811-2.363h-4.02v13.079c0 1.895.86 2.112 2.033 2.112h.465v.741c-.955 0-2.668-.097-3.993-.097-1.469 0-3.187.097-4.142.097v-.741h.464c1.35 0 2.038-.121 2.038-2.061v-13.13h-4.021z"/>
    <path fill="#211E1F" d="M194.744 224.63c-.962 0-2.678-.1-3.994-.1-1.465 0-3.181.1-4.142.1h-.108v-.951h.572c1.351-.033 1.894-.05 1.928-1.955l-.004-13.023h-3.907v-.217h4.123v13.24c0 1.972-.794 2.166-2.14 2.17h-.36v.526c.97-.01 2.616-.099 4.038-.099 1.28 0 2.918.089 3.887.099v-.525h-.362c-1.178-.005-2.133-.29-2.136-2.222v-13.189h4.126c1.645.007 1.86 1.41 1.907 2.321l.535-.196c0-.64.002-1.283.05-1.927.067-.633.159-1.263.25-1.89l-.371-.064c-.112.716-.804.756-1.414.745h-12.774c-.578.007-1.203-.027-1.426-.717h-.4a14.606 14.606 0 0 1-.15 1.997c-.065.677-.186 1.328-.277 1.974h.525c.325-1.713.537-2.269 2.369-2.243v.217c-1.817.03-1.776.339-2.177 2.156l-.019.083h-.945l.015-.123c.102-.693.225-1.379.296-2.09.1-.686.148-1.368.148-2.074v-.107h.775l.02.077c.172.62.619.623 1.246.634l.124.003h12.65c.676-.013 1.17-.024 1.213-.664l.007-.118.115.024.695.11-.018.106a53.31 53.31 0 0 0-.269 1.983c-.05.654-.05 1.32-.05 1.982v.077l-.068.027-.87.317-.004-.144c-.063-.923-.16-2.26-1.708-2.26h-3.914v12.973c.026 1.854.758 1.982 1.924 2.006h.574v.95h-.105zm5.29-.846h.343c.885 0 1.811-.119 1.811-1.4v-12.877c0-1.282-.926-1.403-1.81-1.403h-.344v-.738c.957 0 2.425.097 3.623.097 1.23 0 2.7-.097 3.853-.097v.738h-.344c-.882 0-1.816.121-1.816 1.403v12.878c0 1.28.934 1.4 1.816 1.4h.344v.74c-1.178 0-2.65-.096-3.872-.096-1.203 0-2.647.097-3.604.097v-.742z"/>
    <path fill="#211E1F" d="M207.511 224.63c-1.184 0-2.651-.1-3.873-.1-1.198 0-2.646.1-3.603.1h-.107v-.951h.45c.886-.014 1.698-.09 1.702-1.294v-12.878c-.004-1.2-.816-1.282-1.702-1.299h-.45v-.947h.107c.957 0 2.429.093 3.623.093 1.222 0 2.692-.093 3.853-.093h.104v.947h-.447c-.896.017-1.7.099-1.712 1.299v12.878c.012 1.204.816 1.28 1.712 1.294h.447v.95h-.104zm-.11-.215v-.52h-.233c-.879 0-1.919-.155-1.919-1.51v-12.878c0-1.359 1.04-1.512 1.919-1.512h.233v-.521c-1.132.006-2.548.095-3.743.095-1.16 0-2.566-.089-3.516-.095v.521h.237c.871 0 1.915.153 1.918 1.512v12.878c-.003 1.355-1.047 1.51-1.918 1.51h-.237v.52c.945-.01 2.332-.094 3.496-.094 1.188 0 2.607.089 3.762.094zm9.883-17.417c5.224 0 9.388 3.249 9.388 8.483 0 5.655-4.043 9.413-9.26 9.413-5.201 0-9.168-3.54-9.168-8.825 0-5.112 3.943-9.071 9.04-9.071zm.37 16.814c4.756 0 5.583-4.207 5.583-7.791 0-3.593-1.93-7.942-6-7.942-4.29 0-5.563 3.834-5.563 7.126 0 4.4 2.009 8.607 5.98 8.607z"/>
    <path fill="#211E1F" d="M208.135 216.069c.01-5.171 4-9.171 9.148-9.178v.211c-5.037 0-8.936 3.908-8.94 8.967.011 5.226 3.922 8.713 9.068 8.714 5.166-.001 9.152-3.707 9.16-9.307-.005-5.168-4.106-8.367-9.287-8.374v-.211c5.265.003 9.484 3.284 9.495 8.585-.005 5.714-4.101 9.512-9.368 9.522-5.241-.01-9.266-3.586-9.276-8.93v.001zm3.433-.864c.007-3.306 1.295-7.237 5.67-7.237 4.16.01 6.103 4.442 6.11 8.053-.008 3.585-.849 7.893-5.692 7.893v-.208c4.66-.006 5.467-4.1 5.479-7.685 0-3.563-1.914-7.83-5.897-7.835-4.205.005-5.45 3.745-5.457 7.019.003 4.378 1.993 8.491 5.875 8.501v.208c-4.069-.005-6.081-4.283-6.088-8.71zm31.62 4.476l.05-.048v-9.217c0-2.018-1.4-2.311-2.137-2.311h-.53v-.739c1.149 0 2.276.097 3.424.097 1.008 0 2.012-.097 3.019-.097v.739h-.37c-1.028 0-2.181.195-2.181 3.12v11.188c0 .859.024 1.718.148 2.48h-.93l-12.624-14.11v10.128c0 2.14.415 2.874 2.301 2.874h.42v.741c-1.056 0-2.107-.097-3.161-.097-1.103 0-2.233.097-3.336.097v-.741h.345c1.694 0 2.202-1.152 2.202-3.117v-10.354c0-1.376-1.122-2.21-2.228-2.21h-.32v-.737c.932 0 1.889.097 2.818.097.736 0 1.445-.097 2.183-.097l10.907 12.314z"/>
    <path fill="#211E1F" d="M244.611 224.999l-1.014-.036-12.435-13.903v9.852c.027 2.137.351 2.742 2.192 2.764h.53v.955h-.107c-1.062 0-2.114-.1-3.161-.1-1.1 0-2.225.1-3.338.1h-.102v-.955h.449c1.616-.005 2.08-1.048 2.1-3.008v-10.354c-.003-1.309-1.072-2.103-2.126-2.105h-.423v-.948h.102c.94 0 1.895.094 2.82.094.727 0 1.434-.094 2.263-.058l10.768 12.161v-9.04c-.007-1.956-1.312-2.192-2.03-2.209h-.643v-.947h.11c1.154 0 2.284.094 3.425.094 1.006 0 2.005-.094 3.021-.094h.106v.947h-.476c-1.008.03-2.051.121-2.072 3.017v11.186c0 .859.019 1.716.138 2.468l.02.119h-.117zm-.93-.215h.801c-.107-.738-.125-1.556-.125-2.373v-11.185c0-2.956 1.235-3.223 2.286-3.232h.265v-.52c-.967.007-1.936.096-2.916.096-1.115 0-2.212-.089-3.321-.096v.52h.43c.76.009 2.238.345 2.238 2.424l-.027 9.289-.046.05-.078.08-10.908-12.362c-.722 0-1.438.095-2.182.095-.902 0-1.822-.089-2.714-.095v.52h.216c1.15.008 2.335.879 2.335 2.319v10.354c0 1.965-.547 3.223-2.31 3.23l-.241-.002v.52c1.064-.005 2.155-.094 3.232-.094 1.022 0 2.036.089 3.055.094v-.518h-.317c-1.923-.002-2.404-.849-2.404-2.986v-10.406l12.73 14.278zm-.494-5.105l.078-.07-.078.07zm-.057-.046v-.008l-.02-.019.02.027zm7.821 1.377c-.24.834-.537 1.478-.537 1.916 0 .74 1.032.86 1.836.86h.273v.74a55.475 55.475 0 0 0-2.967-.097c-.886 0-1.764.045-2.643.098v-.742h.14c.96 0 1.772-.564 2.134-1.598l3.926-11.28c.316-.91.76-2.14.903-3.05a12.63 12.63 0 0 0 2.234-1.056c.07-.025.12-.051.194-.051.073 0 .119 0 .168.077.075.194.152.417.225.613l4.507 12.858c.294.859.586 1.768.909 2.507.294.689.81.98 1.616.98h.15v.742a69.542 69.542 0 0 0-3.386-.097 87.38 87.38 0 0 0-3.676.097v-.742h.272c.56 0 1.521-.095 1.521-.71 0-.32-.223-.982-.496-1.771l-.952-2.852h-5.564l-.787 2.559zm3.583-10.89h-.05l-2.282 6.957h4.587l-2.255-6.957z"/>
    <path fill="#211E1F" d="M264.008 224.63c-1.103-.044-2.204-.099-3.375-.099-1.194 0-2.421.055-3.672.1l-.109.006v-.958h.372c.57 0 1.416-.133 1.417-.605.005-.28-.215-.95-.489-1.737l-.931-2.78h-5.41l-.758 2.484c-.244.842-.537 1.488-.532 1.885 0 .603.918.753 1.729.753h.374v.958l-.11-.007c-.98-.044-1.983-.099-2.958-.099-.879 0-1.76.055-2.643.1l-.107.006v-.958h.247c.914-.003 1.679-.53 2.036-1.527l3.922-11.281c.313-.912.754-2.137.972-3.114.77-.268 1.754-.758 2.23-1.059.064-.022.13-.05.23-.05a.275.275 0 0 1 .27.142c.072.193.144.416.225.616l4.507 12.856c.293.862.587 1.77.904 2.502.288.651.735.908 1.516.915h.255v.958l-.112-.007zm-6.945-.216c1.211-.046 2.404-.094 3.57-.094 1.14 0 2.21.048 3.277.09l-.004-.513h-.04c-.83.002-1.409-.325-1.713-1.05-.323-.746-.616-1.658-.908-2.516l-4.51-12.857c-.074-.196-.148-.42-.208-.586-.02-.031-.018-.031-.037-.031h-.046c-.051 0-.079.017-.138.034-.477.302-1.46.792-2.185.982-.152.93-.597 2.156-.913 3.068l-3.924 11.283c-.372 1.066-1.229 1.675-2.232 1.673h-.035v.513c.843-.042 1.685-.09 2.539-.09.95 0 1.917.048 2.86.09v-.513h-.167c-.796-.01-1.915-.097-1.944-.971.005-.488.31-1.113.546-1.947l.1.033-.1-.036.807-2.628h5.716l.982 2.92c.27.792.493 1.445.493 1.806-.036.755-1.064.808-1.625.823h-.162v.517zm-5.007-7.234l2.35-7.168h.128v.107l-.026.005.026-.005v-.107h.076l2.317 7.168h-4.871zm.294-.211h4.286l-2.131-6.584-2.155 6.584zm2.082-6.819l.049-.019-.05.019zm15.762 11.966c0 .984.68 1.277 1.465 1.377 1.005.075 2.108.075 3.24-.05 1.026-.123 1.91-.713 2.348-1.327.391-.542.612-1.23.76-1.77h.71c-.268 1.4-.612 2.78-.907 4.18-2.152 0-4.313-.097-6.467-.097-2.16 0-4.313.097-6.47.097v-.741h.337c.887 0 1.846-.12 1.846-1.645v-12.633c0-1.282-.96-1.402-1.846-1.402h-.337v-.738c1.295 0 2.572.097 3.868.097 1.254 0 2.478-.097 3.729-.097v.738h-.617c-.928 0-1.659.027-1.659 1.326v12.685z"/>
    <path fill="#211E1F" d="M277.81 224.63c-2.16 0-4.316-.098-6.466-.098-2.159 0-4.315.098-6.475.098h-.104v-.95h.445c.89-.021 1.729-.082 1.739-1.54v-12.637c-.01-1.195-.845-1.277-1.739-1.294h-.445v-.948h.104c1.303 0 2.58.094 3.874.094 1.245 0 2.468-.094 3.727-.094h.101v.948h-.716c-.95.027-1.541-.017-1.56 1.222v12.686c.007.915.605 1.162 1.37 1.27.433.03.887.049 1.36.049.6 0 1.223-.029 1.856-.097.999-.118 1.859-.696 2.28-1.282.378-.525.595-1.2.741-1.737l.023-.081h.922l-.022.13c-.277 1.405-.613 2.78-.91 4.178l-.02.084h-.085zm-.088-.214c.284-1.333.605-2.637.869-3.966h-.504c-.153.535-.37 1.194-.756 1.731-.457.638-1.365 1.238-2.427 1.369-.642.066-1.278.1-1.88.1-.474 0-.934-.022-1.378-.053-.797-.088-1.57-.43-1.567-1.48V209.43c0-1.365.862-1.435 1.776-1.435h.507v-.522c-1.208.007-2.398.097-3.619.097-1.269 0-2.51-.09-3.767-.097v.522h.234c.875 0 1.946.153 1.946 1.506v12.638c0 1.59-1.066 1.756-1.946 1.756h-.234v.52c2.119-.002 4.238-.094 6.368-.094s4.257.092 6.378.094zm.698-17.748c1.477 0 2.58 1.139 2.58 2.597 0 1.453-1.103 2.58-2.58 2.58s-2.581-1.127-2.581-2.58c0-1.458 1.104-2.597 2.581-2.597zm0 4.696c1.154 0 2.042-.989 2.042-2.099 0-1.116-.874-2.113-2.042-2.113-1.16 0-2.048.997-2.048 2.113 0 1.11.888 2.099 2.048 2.099zm-1.285-.735v-.128c.318-.044.376-.034.376-.232v-1.915c0-.27-.03-.362-.364-.348v-.131h1.32c.456 0 .873.216.873.687 0 .385-.255.67-.61.78l.423.593c.198.27.421.522.569.61v.084h-.503c-.241 0-.452-.51-.928-1.193h-.286v.86c0 .17.06.16.378.205v.128h-1.248zm.87-1.364h.305c.333 0 .489-.253.489-.66 0-.413-.241-.558-.506-.558h-.288v1.218z"/>
    <path fill="#0079BE" d="M187.763 162.999c37.244.179 71.237-30.537 71.237-67.904 0-40.863-33.993-69.109-71.237-69.095h-32.052C118.022 25.986 87 54.24 87 95.095c0 37.375 31.022 68.084 68.711 67.904h32.052z"/>
    <path fill="#fff" d="M155.863 31.662c-34.44.011-62.347 28.077-62.355 62.716.008 34.632 27.915 62.695 62.355 62.706 34.448-.01 62.361-28.074 62.365-62.706-.005-34.64-27.917-62.705-62.365-62.716zm-39.525 62.716c.032-16.927 10.547-31.36 25.374-37.096v74.183c-14.827-5.733-25.342-20.159-25.374-37.087zm53.67 37.103V57.28c14.833 5.722 25.364 20.164 25.391 37.099a39.799 39.799 0 0 1-25.39 37.103z"/>
    <path fill="#0079BE" d="M187.763 162.999c37.244.179 71.237-30.537 71.237-67.904 0-40.863-33.993-69.109-71.237-69.095h-32.052C118.022 25.986 87 54.24 87 95.095c0 37.375 31.022 68.084 68.711 67.904h32.052z"/>
    <path fill="#fff" d="M155.863 31.662c-34.44.011-62.347 28.077-62.355 62.716.008 34.632 27.915 62.695 62.355 62.706 34.448-.01 62.361-28.074 62.365-62.706-.005-34.64-27.917-62.705-62.365-62.716zm-39.525 62.716c.032-16.927 10.547-31.36 25.374-37.096v74.183c-14.827-5.733-25.342-20.159-25.374-37.087zm53.67 37.103V57.28c14.833 5.722 25.364 20.164 25.391 37.099a39.799 39.799 0 0 1-25.39 37.103z"/>
    <path fill="#E7E7E7" fill-rule="evenodd" d="M30 0h290c16.6 0 30 13.4 30 30v190c0 16.6-13.4 30-30 30H30c-16.6 0-30-13.4-30-30V30C0 13.4 13.4 0 30 0zm310 30c0-11-9-20-20-20H30c-11 0-20 9-20 20v190c0 11 9 20 20 20h290c11 0 20-9 20-20V30z" clip-rule="evenodd"/>
</svg>
