<svg width="344" height="49" viewBox="0 0 344 49" fill="none" xmlns="http://www.w3.org/2000/svg">
<g clip-path="url(#clip0_9263_144607)">
<path d="M186.972 2.08248L196.536 19.5836L176.427 37.0757L186.972 2.08248Z" fill="#268E4F"/>
<path d="M180.262 2.08248L189.825 19.5836L169.705 37.0757L180.262 2.08248Z" fill="#F17F35"/>
<path d="M44.1515 27.471C43.4113 28.8945 41.9285 29.9246 40.1603 30.1284H38.8499H13.1452L15.316 22.9742H35.1477H41.2749H42.5957C43.5889 23.197 44.3649 23.9262 44.5936 24.8409C44.6249 25.045 44.6463 25.2544 44.6463 25.4658L44.6285 25.7888L44.6196 25.9237L44.1515 27.471ZM19.5639 8.97516H46.8936C47.6416 9.14556 48.2692 9.59664 48.6321 10.1976C48.7619 10.618 48.8411 11.0628 48.8411 11.521C48.8411 11.7685 48.8149 12.0076 48.7796 12.2372L48.702 12.4694L48.4416 13.3456C47.7384 14.8658 46.1889 15.9768 44.3311 16.1852H43.0692H17.3753L19.5639 8.97516ZM48.0253 35.9262C48.9707 35.2585 49.5863 34.4372 49.8811 33.4612L53.0671 22.9742C53.3561 22.021 53.2291 21.2216 52.6863 20.5737C52.1447 19.9309 51.3431 19.606 50.2859 19.606C51.3431 19.606 52.3436 19.2746 53.2853 18.6101C54.2212 17.9481 54.8359 17.1382 55.1233 16.1852L58.3083 5.71277C58.6149 4.6929 58.5113 3.85277 57.9916 3.18984C57.4769 2.52264 56.6665 2.1909 55.5723 2.1909H14.0785L3.5332 36.918H45.0285C46.0868 36.918 47.0889 36.5888 48.0253 35.9262Z" fill="#737576"/>
<path d="M101.773 2.21746L97.6014 16.1659H67.67L71.8388 2.21746H64.394L54.043 36.8325H61.4878L65.6424 22.9424H95.5774L91.4195 36.8325H98.8659L109.218 2.21746H101.773Z" fill="#737576"/>
<path d="M111.385 36.9448H103.89L114.309 2.33749H121.802L111.385 36.9448Z" fill="#737576"/>
<path d="M173.909 2.30746L142.817 26.5371L131.975 9.96214L126.969 2.30746H126.827L124.468 10.1709L116.472 36.8137H123.915L129.519 18.1371L141.394 36.8584L161.05 20.2851L156.118 36.8137H163.566L170.833 12.5908L173.919 2.30746H173.909Z" fill="#737576"/>
<path d="M2.97467 43.2747H3.34446C3.80019 43.2747 4.13978 43.2215 4.35957 43.1121C4.57207 43.0001 4.71686 42.8198 4.78405 42.5637C4.86061 42.2824 4.82207 42.0861 4.67623 41.9741C4.52885 41.8616 4.21478 41.8048 3.72623 41.8048H3.36061L2.97467 43.2747ZM2.38926 45.5397H2.71946C3.05489 45.5397 3.31165 45.5256 3.48353 45.4996C3.65437 45.4766 3.79707 45.4387 3.91218 45.3799C4.04551 45.3116 4.16426 45.2231 4.25593 45.1059C4.34707 44.9913 4.41426 44.8668 4.45071 44.7288C4.49342 44.5663 4.48926 44.423 4.44238 44.3001L4.18457 44.0195L3.89394 43.9293C3.77989 43.9141 3.62831 43.9037 3.43718 43.9037H3.14238H2.81374L2.38926 45.5397ZM1.27051 46.2329L2.60331 41.1141H4.08926C4.51113 41.1141 4.82207 41.1304 5.01686 41.1714C5.20541 41.2116 5.3653 41.2766 5.48093 41.3678C5.63561 41.484 5.7377 41.6345 5.78822 41.8241C5.8403 42.0137 5.8403 42.2225 5.77571 42.4528C5.70489 42.7231 5.57259 42.9537 5.37885 43.1351C5.18353 43.3209 4.94238 43.4475 4.65019 43.5173C4.97937 43.5632 5.2127 43.7028 5.35175 43.9266C5.49082 44.1501 5.5153 44.4356 5.42937 44.7799C5.37207 44.9824 5.28197 45.1834 5.14655 45.3689C5.01686 45.5584 4.86061 45.7152 4.66686 45.8422C4.47103 45.9856 4.24655 46.0865 3.99238 46.148C3.73978 46.2053 3.32779 46.2329 2.76582 46.2329H1.27051Z" fill="#737576"/>
<path d="M8.51758 46.2329L9.85091 41.1141H10.8082L10.3129 43.0001H13.2197L13.7092 41.1141H14.6676L13.3332 46.2329H12.3749L13.0202 43.7455H10.1233L9.47279 46.2329H8.51758Z" fill="#737576"/>
<path d="M18.9458 44.2194H20.5901L20.2901 43.0538L20.2494 42.7966L20.2177 42.4715L20.0363 42.7841L19.8567 43.0538L18.9458 44.2194ZM21.0734 46.2319L20.7499 44.9127H18.4073L17.3863 46.2319H16.375L20.6202 40.9106L22.0843 46.2319H21.0734Z" fill="#737576"/>
<path d="M26.8564 43.2938H27.0324C27.5356 43.2938 27.8861 43.2433 28.0793 43.1397C28.2741 43.0386 28.4037 42.8542 28.472 42.5965C28.5444 42.3141 28.5089 42.1137 28.36 41.999C28.2126 41.8807 27.8944 41.8241 27.4132 41.8241H27.237L26.8564 43.2938ZM26.6282 43.9417L26.0304 46.2334H25.1318L26.4662 41.1146H27.8006C28.1918 41.1146 28.4913 41.1334 28.6985 41.1761C28.9017 41.2225 29.0657 41.2959 29.1908 41.3959C29.3422 41.5241 29.4422 41.6807 29.4938 41.8771C29.5376 42.0709 29.5334 42.2865 29.472 42.523C29.3673 42.9307 29.1662 43.2511 28.8813 43.4834C28.5918 43.7183 28.2194 43.8574 27.7637 43.9037L29.1865 46.2334H28.1022L26.7361 43.9417H26.6282Z" fill="#737576"/>
<path d="M34.0094 44.2194H35.6579L35.3574 43.0538L35.3141 42.7966L35.2823 42.4715L35.1053 42.7841L34.9235 43.0538L34.0094 44.2194ZM36.1407 46.2319L35.8146 44.9127H33.4798L32.4495 46.2319H31.4443L35.6807 40.9106L37.1517 46.2319H36.1407Z" fill="#737576"/>
<path d="M42.8005 41.8162L41.6473 46.2334H40.6942L41.8379 41.8162H40.2754L40.4598 41.1146H44.5437L44.3573 41.8162H42.8005Z" fill="#737576"/>
<path d="M51.4316 46.2329L52.7644 41.1141H53.7254L52.3884 46.2329H51.4316Z" fill="#737576"/>
<path d="M56.2607 46.2327L57.6498 40.9108L60.5837 44.0384L60.8138 44.3196C60.8935 44.4228 60.9722 44.5348 61.0555 44.6635L61.9763 41.1139H62.8649L61.4831 46.4302L58.4894 43.2468L58.2638 42.9739L58.0701 42.6723L57.1419 46.2327H56.2607Z" fill="#737576"/>
<path d="M68.4302 41.8162L67.2854 46.2334H66.3234L67.4734 41.8162H65.9072L66.0972 41.1146H70.1739L69.9968 41.8162H68.4302Z" fill="#737576"/>
<path d="M72.0635 46.2329L73.3989 41.1141H76.6921L76.5079 41.8157H74.1771L73.8401 43.1053H76.1724L75.9812 43.834H73.6495L73.2208 45.4892H75.5525L75.3579 46.2329H72.0635Z" fill="#737576"/>
<path d="M80.6717 43.2938H80.8477C81.354 43.2938 81.705 43.2433 81.8941 43.1397C82.0894 43.0386 82.219 42.8542 82.2848 42.5965C82.3608 42.3141 82.3238 42.1137 82.1753 41.999C82.0238 41.8807 81.7129 41.8241 81.2296 41.8241H81.0577L80.6717 43.2938ZM80.4452 43.9417L79.8462 46.2334H78.9482L80.2816 41.1146H81.6201C82.0144 41.1146 82.3086 41.1334 82.5138 41.1761C82.7186 41.2225 82.8848 41.2959 83.0118 41.3959C83.1618 41.5241 83.2592 41.6807 83.3133 41.8771C83.3545 42.0709 83.3488 42.2865 83.2878 42.523C83.1848 42.9307 82.9821 43.2511 82.6957 43.4834C82.4072 43.7183 82.0373 43.8574 81.579 43.9037L82.9993 46.2334H81.9186L80.5556 43.9417H80.4452Z" fill="#737576"/>
<path d="M86.0615 46.2329L87.3969 41.1141H90.6818L90.5017 41.8157H88.1683L87.8407 43.097H90.1714L89.9787 43.8266H87.6469L87.0219 46.2329H86.0615Z" fill="#737576"/>
<path d="M94.3585 44.2194H96.0028L95.7053 43.0538L95.6616 42.7966L95.6304 42.4715L95.4444 42.7841L95.2657 43.0538L94.3585 44.2194ZM96.4834 46.2319L96.1542 44.9127H93.8236L92.7965 46.2319H91.7881L96.0288 40.9106L97.497 46.2319H96.4834Z" fill="#737576"/>
<path d="M106.142 42.3563C105.92 42.1558 105.672 42.0052 105.4 41.9042C105.121 41.8052 104.817 41.7542 104.48 41.7542C103.842 41.7542 103.269 41.936 102.768 42.2948C102.276 42.6536 101.948 43.1162 101.8 43.687C101.659 44.2422 101.734 44.6979 102.037 45.0568C102.336 45.4151 102.783 45.5954 103.384 45.5954C103.73 45.5954 104.079 45.5396 104.423 45.4344C104.766 45.3266 105.11 45.164 105.452 44.949L105.213 45.8891C104.913 46.0516 104.603 46.1714 104.276 46.2495C103.951 46.3298 103.614 46.3667 103.258 46.3667C102.808 46.3667 102.408 46.3063 102.059 46.1792C101.707 46.049 101.424 45.8574 101.193 45.612C100.972 45.3651 100.824 45.076 100.755 44.7443C100.69 44.4126 100.709 44.0579 100.803 43.6844C100.903 43.3099 101.071 42.9536 101.31 42.6276C101.552 42.299 101.851 42.0052 102.21 41.7542C102.564 41.5031 102.952 41.3146 103.363 41.1839C103.776 41.0516 104.201 40.9916 104.637 40.9916C104.989 40.9916 105.309 41.0323 105.602 41.123C105.89 41.2074 106.16 41.3422 106.41 41.5156L106.142 42.3563Z" fill="#737576"/>
<path d="M108.813 46.2329L110.146 41.1141H113.433L113.25 41.8157H110.92L110.581 43.1053H112.918L112.726 43.834H110.397L109.958 45.4892H112.295L112.103 46.2329H108.813Z" fill="#737576"/>
<path d="M120.674 46.2329L122.008 41.1141H125.298L125.113 41.8157H122.78L122.448 43.097H124.784L124.59 43.8266H122.26L121.633 46.2329H120.674Z" fill="#737576"/>
<path d="M133.204 43.6838C133.275 43.4254 133.283 43.1775 133.234 42.9426C133.186 42.7119 133.089 42.503 132.932 42.3218C132.779 42.1411 132.581 42.0046 132.347 41.9057C132.109 41.8125 131.846 41.7619 131.554 41.7619C131.266 41.7619 130.977 41.8082 130.691 41.9057C130.406 42.0021 130.136 42.1411 129.885 42.3218C129.632 42.4989 129.423 42.7078 129.256 42.9401C129.086 43.1745 128.971 43.4213 128.903 43.6838C128.831 43.9411 128.825 44.1895 128.87 44.4161C128.918 44.651 129.021 44.8557 129.175 45.0369C129.336 45.2182 129.53 45.3578 129.766 45.4535C130.002 45.5458 130.266 45.5953 130.56 45.5953C130.845 45.5953 131.13 45.5458 131.417 45.4535C131.704 45.3578 131.965 45.2182 132.22 45.0369C132.472 44.8557 132.683 44.6483 132.857 44.4119C133.023 44.1843 133.139 43.9411 133.204 43.6838ZM134.208 43.6838C134.111 44.0447 133.943 44.3926 133.7 44.7177C133.459 45.0369 133.159 45.3281 132.789 45.5811C132.419 45.8354 132.03 46.0317 131.608 46.1671C131.194 46.3021 130.776 46.3677 130.359 46.3677C129.933 46.3677 129.542 46.3021 129.197 46.163C128.849 46.0291 128.555 45.8354 128.324 45.5811C128.089 45.3281 127.939 45.0415 127.868 44.7207C127.793 44.3958 127.805 44.051 127.9 43.6838C127.996 43.3177 128.168 42.9697 128.405 42.6453C128.646 42.3218 128.947 42.0322 129.315 41.777C129.686 41.5234 130.076 41.327 130.494 41.1947C130.908 41.0609 131.329 40.9994 131.756 40.9994C132.18 40.9994 132.565 41.0609 132.913 41.1947C133.257 41.327 133.547 41.5234 133.781 41.777C134.015 42.0354 134.169 42.3254 134.237 42.653C134.313 42.9765 134.301 43.3207 134.208 43.6838Z" fill="#737576"/>
<path d="M138.855 43.2938H139.031C139.537 43.2938 139.889 43.2433 140.083 43.1397C140.273 43.0386 140.404 42.8542 140.475 42.5965C140.545 42.3141 140.512 42.1137 140.361 41.999C140.212 41.8807 139.896 41.8241 139.416 41.8241H139.24L138.855 43.2938ZM138.629 43.9417L138.032 46.2334H137.139L138.468 41.1146H139.803C140.196 41.1146 140.496 41.1334 140.701 41.1761C140.903 41.2225 141.068 41.2959 141.196 41.3959C141.348 41.5241 141.444 41.6807 141.496 41.8771C141.544 42.0709 141.54 42.2865 141.477 42.523C141.369 42.9307 141.171 43.2511 140.883 43.4834C140.597 43.7183 140.221 43.8574 139.764 43.9037L141.188 46.2334H140.103L138.739 43.9417H138.629Z" fill="#737576"/>
<path d="M154.69 43.7024C154.69 43.6643 154.712 43.5549 154.729 43.3737C154.746 43.2237 154.761 43.1049 154.77 43.0033L154.576 43.3518L154.316 43.709L152.062 46.4409L151.244 43.656L151.165 43.3247L151.124 43.0033L151.006 43.3399C150.958 43.4596 150.9 43.5825 150.829 43.709L149.542 46.2325H148.658L151.448 40.8945L152.338 44.1262L152.397 44.382C152.421 44.5008 152.453 44.6508 152.481 44.8243C152.58 44.6737 152.713 44.4882 152.896 44.2622L153.001 44.1226L155.544 40.8945L155.581 46.2325H154.69V43.7024Z" fill="#737576"/>
<path d="M164.547 43.6838C164.617 43.4254 164.627 43.1775 164.577 42.9426C164.533 42.7119 164.423 42.503 164.271 42.3218C164.114 42.1411 163.923 42.0046 163.683 41.9057C163.449 41.8125 163.185 41.7619 162.897 41.7619C162.607 41.7619 162.314 41.8082 162.03 41.9057C161.745 42.0021 161.477 42.1411 161.221 42.3218C160.973 42.4989 160.765 42.7078 160.595 42.9401C160.426 43.1745 160.307 43.4213 160.241 43.6838C160.173 43.9411 160.163 44.1895 160.209 44.4161C160.261 44.651 160.357 44.8557 160.515 45.0369C160.678 45.2182 160.871 45.3578 161.107 45.4535C161.341 45.5458 161.605 45.5953 161.894 45.5953C162.185 45.5953 162.474 45.5458 162.757 45.4535C163.038 45.3578 163.309 45.2182 163.562 45.0369C163.814 44.8557 164.023 44.6483 164.194 44.4119C164.365 44.1843 164.481 43.9411 164.547 43.6838ZM165.546 43.6838C165.451 44.0447 165.285 44.3926 165.042 44.7177C164.803 45.0369 164.497 45.3281 164.133 45.5811C163.761 45.8354 163.366 46.0317 162.954 46.1671C162.534 46.3021 162.117 46.3677 161.695 46.3677C161.273 46.3677 160.886 46.3021 160.535 46.163C160.186 46.0291 159.898 45.8354 159.666 45.5811C159.43 45.3281 159.282 45.0415 159.207 44.7207C159.135 44.3958 159.145 44.051 159.242 43.6838C159.338 43.3177 159.505 42.9697 159.743 42.6453C159.985 42.3218 160.287 42.0322 160.654 41.777C161.023 41.5234 161.417 41.327 161.829 41.1947C162.245 41.0609 162.669 40.9994 163.097 40.9994C163.519 40.9994 163.905 41.0609 164.249 41.1947C164.594 41.327 164.887 41.5234 165.119 41.777C165.355 42.0354 165.507 42.3254 165.579 42.653C165.655 42.9765 165.642 43.3207 165.546 43.6838Z" fill="#737576"/>
<path d="M168.476 46.2327L169.858 40.9108L172.793 44.0384L173.025 44.3196C173.109 44.4228 173.189 44.5348 173.27 44.6635L174.194 41.1139H175.08L173.693 46.4302L170.701 43.2468L170.478 42.9739L170.28 42.6723L169.353 46.2327H168.476Z" fill="#737576"/>
<path d="M177.593 46.2329L178.925 41.1141H182.217L182.033 41.8157H179.698L179.369 43.1053H181.699L181.507 43.834H179.174L178.743 45.4892H181.081L180.885 46.2329H177.593Z" fill="#737576"/>
<path d="M185.744 46.2329L186.353 43.8886L185.091 41.1141H186.096L186.881 42.8496L186.949 43.023L187.019 43.2594L187.2 43.0272L187.385 42.8266L189.1 41.1141H190.059L187.305 43.8886L186.696 46.2329H185.744Z" fill="#737576"/>
<path d="M216.089 39.9991H217.058L216.158 43.76C216.026 44.3179 216.05 44.7366 216.234 45.0179C216.418 45.2975 216.761 45.4382 217.261 45.4382C217.76 45.4382 218.166 45.2975 218.485 45.0179C218.804 44.7366 219.03 44.3179 219.164 43.76L220.065 39.9991H221.045L220.122 43.8527C219.922 44.6903 219.565 45.3168 219.054 45.7314C218.542 46.1475 217.872 46.3564 217.042 46.3564C216.212 46.3564 215.642 46.1491 215.33 45.7346C215.021 45.3194 214.966 44.6918 215.168 43.8527L216.089 39.9991Z" fill="#777675"/>
<path d="M220.914 46.192L222.455 39.7551L225.383 43.5405L225.619 43.8832C225.697 44.0029 225.775 44.1395 225.858 44.292L226.885 39.9999H227.793L226.254 46.4321L223.263 42.5801L223.041 42.2499C222.97 42.1337 222.906 42.0119 222.847 41.8868L221.818 46.192H220.914Z" fill="#777675"/>
<path d="M227.714 46.1919L229.194 39.9998H230.175L228.694 46.1919H227.714Z" fill="#777675"/>
<path d="M230.105 46.1919L231.587 39.9998H234.955L234.749 40.8534H232.363L231.993 42.3982H234.38L234.169 43.281H231.781L231.085 46.1919H230.105Z" fill="#777675"/>
<path d="M234.553 46.1919L236.034 39.9998H237.015L235.534 46.1919H234.553Z" fill="#777675"/>
<path d="M236.943 46.1919L238.426 39.9998H241.793L241.589 40.8534H239.202L238.83 42.4066H241.217L241.006 43.291H238.619L238.141 45.2899H240.527L240.311 46.1919H236.943Z" fill="#777675"/>
<path d="M242.636 45.2815H243.461C243.913 45.2815 244.261 45.2514 244.502 45.1888C244.745 45.1274 244.968 45.0222 245.169 44.8763C245.446 44.6758 245.677 44.4274 245.862 44.13C246.046 43.8326 246.188 43.4858 246.281 43.0914C246.376 42.6962 246.401 42.3508 246.358 42.0528C246.316 41.7555 246.205 41.5076 246.024 41.3066C245.889 41.1591 245.709 41.0555 245.488 40.993C245.264 40.9315 244.9 40.9014 244.394 40.9014H244.04H243.686L242.636 45.2815ZM241.438 46.1919L242.92 39.9998H244.242C245.104 39.9998 245.698 40.0446 246.028 40.1331C246.356 40.2216 246.628 40.3706 246.842 40.5795C247.126 40.8524 247.306 41.2044 247.384 41.6326C247.46 42.0612 247.433 42.5498 247.302 43.0998C247.17 43.6492 246.964 44.1367 246.681 44.5612C246.4 44.9852 246.052 45.3362 245.637 45.6118C245.324 45.8206 244.988 45.9695 244.629 46.058C244.272 46.1467 243.737 46.1919 243.024 46.1919H242.761H241.438Z" fill="#777675"/>
<path d="M252.078 42.5883H252.33C252.873 42.5883 253.251 42.5268 253.462 42.4055C253.671 42.2842 253.814 42.0711 253.887 41.7628C253.966 41.4326 253.926 41.2003 253.763 41.0654C253.602 40.9304 253.262 40.8623 252.742 40.8623H252.491L252.078 42.5883ZM251.818 43.4128L251.154 46.1919H250.235L251.717 40.0003H253.201C253.641 40.0003 253.958 40.0247 254.154 40.0738C254.35 40.1227 254.511 40.2034 254.638 40.3164C254.794 40.4612 254.894 40.6544 254.943 40.8992C254.993 41.1424 254.982 41.4107 254.913 41.7044C254.841 41.9962 254.723 42.268 254.557 42.5159C254.39 42.7643 254.194 42.958 253.971 43.1003C253.79 43.2134 253.59 43.293 253.371 43.3404C253.154 43.3883 252.823 43.4128 252.383 43.4128H252.191H251.818Z" fill="#777675"/>
<path d="M256.123 43.7597H257.805L257.525 42.3467L257.487 42.0367C257.477 41.9195 257.47 41.7883 257.466 41.6446C257.399 41.7801 257.335 41.9071 257.269 42.0238L257.079 42.3467L256.123 43.7597ZM258.254 46.1914L257.95 44.5962H255.559L254.475 46.1914H253.447L257.91 39.755L259.287 46.1914H258.254Z" fill="#777675"/>
<path d="M260.695 46.1919L261.373 43.3576L260.143 39.9998H261.175L261.939 42.1008L262 42.3138L262.071 42.5962L262.259 42.3164L262.451 42.0763L264.247 39.9998H265.228L262.345 43.3576L261.668 46.1919H260.695Z" fill="#777675"/>
<path d="M270.054 43.133C270.054 43.0857 270.069 42.9533 270.097 42.7361C270.117 42.556 270.133 42.406 270.145 42.2872C270.087 42.4278 270.018 42.5694 269.939 42.7106C269.859 42.8508 269.769 42.9956 269.666 43.1413L267.297 46.4409L266.525 43.0752C266.49 42.9357 266.466 42.8019 266.447 42.6721C266.431 42.5429 266.419 42.4142 266.414 42.2872C266.381 42.4169 266.338 42.5533 266.285 42.6956C266.233 42.8382 266.171 42.9872 266.098 43.1413L264.721 46.1913H263.819L266.79 39.7372L267.637 43.6451C267.649 43.7065 267.666 43.8101 267.687 43.9533C267.709 44.0981 267.734 44.2752 267.763 44.4872C267.863 44.3096 268.009 44.0836 268.198 43.8101L268.313 43.6413L270.987 39.7372L270.902 46.1913H269.99L270.054 43.133Z" fill="#777675"/>
<path d="M271.685 46.1919L273.166 39.9998H276.535L276.33 40.8534H273.942L273.571 42.4066H275.958L275.749 43.291H273.361L272.881 45.2899H275.267L275.053 46.1919H271.685Z" fill="#777675"/>
<path d="M276.179 46.192L277.72 39.7551L280.648 43.5405L280.883 43.8832C280.96 44.0029 281.04 44.1395 281.123 44.292L282.151 39.9999H283.057L281.517 46.4321L278.528 42.5801L278.304 42.2499C278.235 42.1337 278.169 42.0119 278.113 41.8868L277.081 46.192H276.179Z" fill="#777675"/>
<path d="M286.188 40.8539L284.909 46.1919H283.929L285.207 40.8539H283.603L283.808 40.0003H287.988L287.784 40.8539H286.188Z" fill="#777675"/>
<path d="M287.206 44.9523L288.078 44.5799C288.088 44.8554 288.172 45.0668 288.336 45.2116C288.497 45.3579 288.733 45.4299 289.042 45.4299C289.333 45.4299 289.584 45.3466 289.796 45.1803C290.006 45.0136 290.148 44.7912 290.214 44.5132C290.3 44.1486 290.084 43.8236 289.565 43.5403L289.397 43.4455C288.812 43.1142 288.44 42.8127 288.284 42.5439C288.126 42.2736 288.094 41.945 288.188 41.5559C288.308 41.0512 288.573 40.6423 288.982 40.3294C289.392 40.0168 289.866 39.8595 290.408 39.8595C290.853 39.8595 291.205 39.9486 291.461 40.1242C291.72 40.3007 291.866 40.5527 291.902 40.883L291.038 41.2898C290.964 41.095 290.865 40.9527 290.742 40.8611C290.62 40.7726 290.465 40.7262 290.278 40.7262C290.014 40.7262 289.789 40.7986 289.598 40.9398C289.41 41.0799 289.286 41.2679 289.23 41.5059C289.14 41.8778 289.4 42.2231 290.004 42.5455L290.113 42.6054C290.642 42.8866 290.986 43.1616 291.144 43.4319C291.302 43.7012 291.333 44.0366 291.237 44.4403C291.096 45.0272 290.805 45.4928 290.361 45.8376C289.92 46.1835 289.392 46.3564 288.778 46.3564C288.264 46.3564 287.873 46.2351 287.602 45.9918C287.33 45.7491 287.2 45.4038 287.206 44.9523Z" fill="#777675"/>
<path d="M294.453 46.1919L295.936 39.9998H296.918L295.434 46.1919H294.453Z" fill="#777675"/>
<path d="M296.845 46.192L298.385 39.7551L301.313 43.5405L301.55 43.8832C301.627 44.0029 301.706 44.1395 301.787 44.292L302.815 39.9999H303.723L302.183 46.4321L299.194 42.5801L298.97 42.2499C298.899 42.1337 298.835 42.0119 298.778 41.8868L297.747 46.192H296.845Z" fill="#777675"/>
<path d="M306.854 40.8539L305.576 46.1919H304.596L305.873 40.8539H304.268L304.473 40.0003H308.654L308.449 40.8539H306.854Z" fill="#777675"/>
<path d="M307.921 46.1919L309.404 39.9998H312.773L312.568 40.8534H310.181L309.809 42.4066H312.194L311.985 43.291H309.598L309.118 45.2899H311.505L311.289 46.1919H307.921Z" fill="#777675"/>
<path d="M314.248 42.6383H314.424C314.945 42.6383 315.304 42.5774 315.504 42.4528C315.703 42.329 315.843 42.1091 315.917 41.7924C316 41.4514 315.965 41.2112 315.815 41.0722C315.667 40.9326 315.344 40.8618 314.851 40.8618H314.673L314.248 42.6383ZM313.997 43.4216L313.335 46.1919H312.416L313.897 39.9998H315.267C315.668 39.9998 315.973 40.0263 316.181 40.08C316.389 40.1331 316.557 40.2216 316.684 40.3462C316.835 40.4962 316.933 40.6883 316.977 40.9263C317.023 41.1618 317.012 41.4227 316.945 41.7039C316.827 42.2003 316.616 42.5878 316.316 42.8691C316.015 43.1498 315.629 43.3195 315.159 43.3752L316.563 46.1919H315.453L314.109 43.4216H313.997Z" fill="#777675"/>
<path d="M317.144 46.1919L318.626 39.9998H321.994L321.79 40.8534H319.404L319.034 42.3982H321.421L321.209 43.281H318.822L318.125 46.1919H317.144Z" fill="#777675"/>
<path d="M323.132 43.7597H324.813L324.533 42.3467L324.496 42.0367C324.487 41.9195 324.479 41.7883 324.473 41.6446C324.409 41.7801 324.344 41.9071 324.279 42.0238L324.088 42.3467L323.132 43.7597ZM325.263 46.1914L324.959 44.5962H322.568L321.485 46.1914H320.456L324.919 39.755L326.297 46.1914H325.263Z" fill="#777675"/>
<path d="M332.684 41.5054C332.464 41.2622 332.213 41.0804 331.933 40.9606C331.655 40.8388 331.343 40.7778 331.003 40.7778C330.343 40.7778 329.755 40.995 329.237 41.4289C328.719 41.8637 328.379 42.4262 328.212 43.1164C328.052 43.7852 328.121 44.3366 328.42 44.7705C328.719 45.2044 329.175 45.4226 329.788 45.4226C330.145 45.4226 330.5 45.357 330.855 45.2273C331.208 45.0976 331.565 44.9013 331.924 44.6377L331.653 45.7757C331.341 45.971 331.02 46.1174 330.687 46.2128C330.352 46.308 330.005 46.356 329.641 46.356C329.18 46.356 328.772 46.28 328.417 46.1242C328.064 45.9685 327.773 45.7409 327.551 45.4377C327.327 45.1434 327.183 44.7934 327.121 44.3909C327.06 43.9898 327.083 43.5617 327.192 43.107C327.3 42.6538 327.481 42.2284 327.736 41.8284C327.989 41.43 328.301 41.0794 328.673 40.7778C329.045 40.4737 329.444 40.2424 329.868 40.0861C330.293 39.9304 330.732 39.8513 331.184 39.8513C331.537 39.8513 331.863 39.9044 332.159 40.0112C332.455 40.1158 332.729 40.2757 332.981 40.4898L332.684 41.5054Z" fill="#777675"/>
<path d="M332.778 46.1919L334.26 39.9998H337.628L337.424 40.8534H335.036L334.665 42.4066H337.052L336.841 43.291H334.453L333.974 45.2899H336.361L336.145 46.1919H332.778Z" fill="#777675"/>
<path d="M314.884 34.6045H308.14L317.518 0.731032H324.264L314.884 34.6045Z" fill="#737576"/>
<path d="M311.383 1.80178C310.915 1.15792 310.195 0.832985 309.215 0.832985H272.131L270.295 7.46632H277.041V7.46218H304.029L302.067 14.5518H275.079L275.081 14.5371H268.336L262.737 34.748H269.485L273.241 21.1835H303.581C304.528 21.1835 305.419 20.86 306.257 20.2132C307.095 19.5668 307.645 18.7679 307.911 17.8158L311.667 4.24805C311.94 3.26472 311.845 2.44698 311.383 1.80178Z" fill="#737576"/>
<path d="M258.806 32.4901C258.434 33.8311 257.213 34.7593 255.821 34.7593H221.026C220.078 34.7593 219.373 34.4354 218.909 33.7901C218.448 33.1437 218.348 32.3458 218.612 31.3915L227.102 0.830207H233.853L226.269 28.1275H253.269L260.854 0.830207H267.602L258.806 32.4901Z" fill="#737576"/>
<path d="M335.912 0.794175L344.449 17.7748L326.501 34.751L335.912 0.794175Z" fill="#28854C"/>
<path d="M329.925 0.794175L338.457 17.7748L320.502 34.751L329.925 0.794175Z" fill="#E97C38"/>
<path d="M205.113 5.50799V39.7227" stroke="#737576" stroke-width="1.59723" stroke-miterlimit="10"/>
</g>
<defs>
<clipPath id="clip0_9263_144607">
<rect width="344" height="49" fill="white"/>
</clipPath>
</defs>
</svg>
